<?xml version="1.0" encoding="UTF-8" standalone="no"?>
<!-- Created with Inkscape (http://www.inkscape.org/) -->

<svg
   width="190.23541mm"
   height="107.68542mm"
   viewBox="0 0 190.23541 107.68542"
   version="1.1"
   id="svg1"
   xml:space="preserve"
   xmlns:inkscape="http://www.inkscape.org/namespaces/inkscape"
   xmlns:sodipodi="http://sodipodi.sourceforge.net/DTD/sodipodi-0.dtd"
   xmlns="http://www.w3.org/2000/svg"
   xmlns:svg="http://www.w3.org/2000/svg"><sodipodi:namedview
     id="namedview1"
     pagecolor="#ffffff"
     bordercolor="#000000"
     borderopacity="0.25"
     inkscape:showpageshadow="2"
     inkscape:pageopacity="0.0"
     inkscape:pagecheckerboard="0"
     inkscape:deskcolor="#d1d1d1"
     inkscape:document-units="mm" /><defs
     id="defs1" /><g
     inkscape:label="Layer 1"
     inkscape:groupmode="layer"
     id="layer1"
     transform="translate(3.3971181,2.5228558)"><path
       style="fill:#000000"
       d="M 20.327187,94.402839 20.150798,94.22645 V 80.438482 66.650515 L 18.305446,66.359943 16.460094,66.069372 14.436935,65.108578 12.413776,64.147784 10.501122,62.231735 8.5884676,60.315686 7.6165111,58.29056 6.6445546,56.265434 6.332346,54.123373 6.0201374,51.981311 6.332346,49.83925 l 0.3122086,-2.142062 0.9711188,-2.025126 0.9711188,-2.025126 2.0116908,-1.994974 2.01169,-1.994974 1.761699,-0.853944 1.7617,-0.853943 2.008613,-0.319585 2.008613,-0.319584 V 23.346663 9.3833943 l 0.264583,-0.0016 0.264584,-0.0016 h 21.166666 21.166666 l 6.227111,0.0016 6.227111,0.0016 0.488946,1.1244787 0.488946,1.12448 0.637084,1.437703 0.637084,1.437703 2.605727,-6.0017658 2.605727,-6.0017656 h 0.06405 0.06405 l 2.454892,5.7546875 2.454892,5.7546879 0.175958,0.205121 0.175957,0.205121 2.454456,-5.7613713 2.454456,-5.7613711 0.179523,-0.1932668 0.179523,-0.1932669 1.826164,4.2943086 1.826164,4.2943085 0.764556,1.719792 0.764556,1.719791 2.59747,-6.0627431 2.59746,-6.0627435 0.39511,0.7710768 0.39511,0.7710767 1.12076,2.7086399 1.12075,2.7086399 27.13334,0.00417 27.13333,0.00417 0.10087,0.1008611 0.10086,0.1008611 -0.0117,19.6097681 -0.0117,19.609768 h 7.0097 7.00969 v 0.531426 0.531426 l -14.48594,-0.0684 -14.48593,-0.0684 v -0.396875 -0.396875 l 6.94531,-0.07054 6.94531,-0.07054 V 29.619626 10.441728 H 133.29227 106.20458 L 105.85766,9.5818318 105.51074,8.721936 104.74813,7.0021443 103.98553,5.2823526 101.37788,11.367769 98.770228,17.453186 98.003447,15.733394 97.236666,14.013603 95.410065,9.7219561 93.583465,5.4303096 93.406603,5.6209144 93.229742,5.8115193 90.775286,11.57289 88.32083,17.334261 88.144873,17.12914 87.968915,16.924019 85.514023,11.169332 83.059131,5.4146443 h -0.06405 -0.06405 l -2.587643,5.9601137 -2.587643,5.960114 -0.09967,-0.09967 -0.09967,-0.09967 -1.394656,-3.280754 -1.394656,-3.280753 -26.777651,-0.0674 -26.77765,-0.06741 0.06482,13.411185 0.06482,13.411186 1.964303,0.330942 1.964304,0.330941 1.991025,0.984019 1.991025,0.984018 1.734164,1.758417 1.734164,1.758416 0.850692,1.596062 0.850692,1.596061 0.405128,1.555391 0.405128,1.555391 v 2.270073 2.270073 l -0.405128,1.555391 -0.405128,1.555391 -0.851643,1.59929 -0.851643,1.599289 -1.730279,1.729554 -1.73028,1.729554 -1.711304,0.866923 -1.711305,0.866922 -1.453208,0.386708 -1.453207,0.386708 -0.858567,0.0031 -0.858568,0.0031 0.06482,13.427604 0.06482,13.427604 69.519269,0.06664 69.519264,0.06664 V 74.343492 55.165097 l -6.94531,-0.07054 -6.94531,-0.07054 V 54.627145 54.23027 l 7.27604,-0.132292 7.27604,-0.132292 7.2099,0.07432 7.20989,0.07432 v 0.520992 0.520991 h -7.00818 -7.00817 l 0.002,19.380729 0.002,19.38073 -0.005,0.330729 -0.005,0.330729 H 90.970935 20.503576 Z m 3.503153,-29.335179 1.695168,-0.399579 1.579589,-0.841913 1.579589,-0.841912 1.499112,-1.499111 1.499111,-1.499112 0.840275,-1.576517 0.840275,-1.576516 0.405128,-1.555392 0.405127,-1.555391 v -1.740906 -1.740906 l -0.405127,-1.555391 -0.405128,-1.555391 -0.840275,-1.576517 -0.840275,-1.576517 -1.545996,-1.545996 -1.545996,-1.545996 -1.925917,-0.95184 -1.925917,-0.95184 -1.920161,-0.297213 -1.920161,-0.297214 -2.104534,0.306739 -2.104534,0.306739 -1.775176,0.844814 -1.775177,0.844814 -1.78602,1.782111 -1.7860194,1.78211 -0.9252632,1.948342 -0.9252633,1.948342 -0.2405068,1.915405 -0.2405068,1.915405 0.2405068,1.915405 0.2405068,1.915406 0.8927402,1.854907 0.8927401,1.854907 1.0156536,1.166992 1.015654,1.166993 1.530134,1.126421 1.530135,1.126421 1.654004,0.536517 1.654005,0.536517 0.661458,0.1106 0.661458,0.110601 1.455209,0.03212 1.455208,0.03212 z m -6.325375,-3.825932 v -0.264583 h 3.307291 3.307292 v 0.264583 0.264583 h -3.307292 -3.307291 z m -5.225521,-5.996062 -0.330729,-0.133452 v -0.374826 -0.374827 h 4.09209 4.09209 l 0.0751,-2.844271 0.0751,-2.844271 4.365625,-0.06563 4.365625,-0.06563 0.364626,0.234488 0.364626,0.234488 -0.181804,0.294165 -0.181803,0.294164 h -4.085427 -4.085427 v 2.910417 2.910417 l -4.299479,-0.02089 -4.299479,-0.02089 z m 8.135937,-9.85689 v -1.609548 h -1.609548 -1.609549 l 0.109098,-0.330729 0.109098,-0.33073 1.50045,-0.07935 1.500451,-0.07935 V 41.517065 40.07506 h 0.396875 0.396875 v 1.455208 1.455209 h 1.455209 1.455208 v 0.396875 0.396875 h -1.442005 -1.442004 l -0.07935,1.500451 -0.07935,1.500451 -0.330729,0.109097 -0.33073,0.109098 z M 140.8008,53.171936 V 42.720894 h -1.30128 -1.30128 l -0.41851,-0.160599 -0.41852,-0.160599 V 42.003168 41.60664 l 1.76171,-4.866831 1.76171,-4.866831 h 0.45097 0.45096 l 1.75682,4.828646 1.75682,4.828645 -7.4e-4,0.434714 -7.5e-4,0.434713 -0.41851,0.160599 -0.41852,0.160599 h -1.30127 -1.30128 v 10.451042 10.451042 h -0.52917 -0.52916 z m -95.803143,3.524883 -0.563895,-1.105325 -0.136819,-1.508873 -0.13682,-1.508872 0.680699,-1.486844 0.6807,-1.486844 h 0.411513 0.411513 v 0.09903 0.09903 l -0.396875,1.124864 -0.396875,1.124863 0.01161,1.752673 0.01161,1.752672 0.381278,1.058334 0.381278,1.058333 0.004,0.06615 0.004,0.06615 H 45.95305 45.561552 Z m 5.445648,0.05347 0.384095,-1.088639 0.153855,-1.244855 0.153856,-1.244854 -0.373708,-1.322917 -0.373709,-1.322916 -0.208095,-0.489856 -0.208095,-0.489856 0.501626,0.09298 0.501626,0.09298 0.614431,1.190625 0.614431,1.190625 -0.109775,1.888641 -0.109774,1.888641 -0.518982,0.888619 -0.518981,0.888619 -0.443448,0.0854 -0.443447,0.0854 z M 39.374096,55.466207 38.936214,54.982353 v -1.897396 -1.897396 h 0.661459 0.661458 v 1.869658 1.869657 l 0.727604,-0.08372 0.727604,-0.08372 0.07823,-1.785937 0.07823,-1.785938 h 0.649369 0.64937 v 2.38125 2.38125 h -0.661459 -0.661458 v -0.273892 -0.273893 l -0.511773,0.273893 -0.511772,0.273892 h -0.505554 -0.505553 z m 8.346285,0.166354 -0.3175,-0.3175 v -1.534583 -1.534583 h -0.264584 -0.264583 v -0.529167 -0.529167 h 0.264583 0.264584 v -0.486697 -0.486697 l 0.661458,-0.301381 0.661458,-0.30138 v 0.788078 0.788077 h 0.396875 0.396875 v 0.529167 0.529167 h -0.396875 -0.396875 v 1.322916 1.322917 h 0.396875 0.396875 v 0.529167 0.529166 h -0.740833 -0.740833 z m 132.835729,0.04529 -0.59364,-0.238667 -0.52985,-0.869041 -0.52985,-0.86904 -9.9e-4,-0.95306 -9.9e-4,-0.95306 0.60422,-0.899024 0.60421,-0.899023 0.94698,-0.236232 0.94699,-0.236232 0.70449,0.176816 0.70449,0.176816 0.52244,0.522437 0.52243,0.522437 v 0.246754 0.246753 l -0.51563,0.163656 -0.51563,0.163655 -0.5427,-0.542701 -0.5427,-0.542701 h -0.51027 -0.51027 l -0.41537,0.415377 -0.41538,0.415377 -0.16137,0.642956 -0.16137,0.642957 0.16137,0.642957 0.16137,0.642957 0.41538,0.415376 0.41537,0.415377 h 0.49137 0.49137 l 0.39215,-0.39215 0.39215,-0.392151 0.10147,-0.304417 0.10148,-0.304417 0.58361,0.18523 0.5836,0.185231 v 0.355525 0.355526 l -0.81405,0.684978 -0.81405,0.684978 -0.83959,-0.01677 -0.8396,-0.01677 z m -61.18656,-7.136123 v -0.529167 h 0.51133 0.51134 l 0.14944,-0.470834 0.14943,-0.470833 -0.79306,-2.05956 -0.79307,-2.05956 v -0.247731 -0.247732 h 0.61052 0.61051 l 0.53247,1.653646 0.53248,1.653646 0.53138,-1.5875 0.53138,-1.5875 0.57459,-0.08455 0.57459,-0.08455 v 0.251423 0.251423 l -0.9451,2.61125 -0.94511,2.61125 -0.41882,0.463021 -0.41882,0.46302 h -0.75274 -0.75274 z m 5.79686,-0.576159 -0.5639,-1.105325 -0.13682,-1.508873 -0.13682,-1.508872 0.6807,-1.486844 0.6807,-1.486844 h 0.41151 0.41152 v 0.09903 0.09903 l -0.39688,1.124864 -0.39687,1.124863 0.0116,1.752673 0.0116,1.752672 0.38128,1.058333 0.38128,1.058334 0.004,0.06615 0.004,0.06615 h -0.3915 -0.3915 z m 5.44564,0.05346 0.3841,-1.08864 0.15385,-1.244854 0.15386,-1.244854 -0.37371,-1.322917 -0.37371,-1.322916 -0.20809,-0.489856 -0.2081,-0.489856 0.50163,0.09298 0.50162,0.09298 0.61443,1.190625 0.61444,1.190625 -0.10978,1.888641 -0.10977,1.888641 -0.51898,0.888619 -0.51899,0.888619 -0.44344,0.0854 -0.44345,0.0854 z m -2.72292,-1.117723 -0.3175,-0.3175 v -1.534583 -1.534584 h -0.26458 -0.26459 v -0.529166 -0.529167 h 0.26459 0.26458 v -0.486697 -0.486697 l 0.66146,-0.301381 0.66146,-0.30138 v 0.788077 0.788078 h 0.39687 0.39688 v 0.529167 0.529166 h -0.39688 -0.39687 v 1.322917 1.322917 h 0.39687 0.39688 v 0.529166 0.529167 h -0.74084 -0.74083 z m -39.740417,-20.32 v -3.175 h 2.057795 2.057796 l 0.588038,0.411878 0.588038,0.411878 v 0.898687 0.898686 l -0.609546,0.459781 -0.609546,0.459782 0.903125,1.338508 0.903124,1.338508 -0.752597,0.08972 -0.752596,0.08972 -0.400878,-0.607951 -0.400878,-0.60795 -0.618832,-0.738537 -0.618832,-0.738537 H 89.977277 89.47163 v 1.322916 1.322917 h -0.661458 -0.661459 z m 3.836459,-1.322917 v -0.661458 h -1.190625 -1.190625 l -0.08519,0.742879 -0.08519,0.742879 1.275819,-0.08142 1.275819,-0.08142 z"
       id="path1" /></g></svg>
