<?xml version="1.0" encoding="UTF-8" standalone="no"?>
<!-- Created with Inkscape (http://www.inkscape.org/) -->

<svg
   width="85.177483mm"
   height="39.427502mm"
   viewBox="0 0 85.177483 39.427502"
   version="1.1"
   id="svg1"
   xmlns:inkscape="http://www.inkscape.org/namespaces/inkscape"
   xmlns:sodipodi="http://sodipodi.sourceforge.net/DTD/sodipodi-0.dtd"
   xmlns="http://www.w3.org/2000/svg"
   xmlns:svg="http://www.w3.org/2000/svg">
  <sodipodi:namedview
     id="namedview1"
     pagecolor="#ffffff"
     bordercolor="#000000"
     borderopacity="0.25"
     inkscape:showpageshadow="2"
     inkscape:pageopacity="0.0"
     inkscape:pagecheckerboard="0"
     inkscape:deskcolor="#d1d1d1"
     inkscape:document-units="mm" />
  <defs
     id="defs1">
    <clipPath
       clipPathUnits="userSpaceOnUse"
       id="clipPath79">
      <path
         d="M 536.605,323.355 H 91.89 V 208.587 h 444.715 z"
         id="path79" />
    </clipPath>
  </defs>
  <g
     inkscape:label="Layer 1"
     inkscape:groupmode="layer"
     id="layer1"
     transform="translate(-62.441665,-128.85209)">
    <path
       id="path69"
       d="M 77.908502,142.44073 H 130.44628 V 128.94028 H 77.908502 Z"
       style="fill:#e9e9e9;fill-opacity:1;fill-rule:nonzero;stroke:#231f20;stroke-width:0.176389;stroke-linecap:butt;stroke-linejoin:miter;stroke-miterlimit:10;stroke-dasharray:none;stroke-opacity:1" />
    <path
       id="path70"
       d="m 102.99841,162.44111 h 37.35846 v -13.50045 h -37.35846 z"
       style="fill:#e9e9e9;fill-opacity:1;fill-rule:nonzero;stroke:#231f20;stroke-width:0.176389;stroke-linecap:butt;stroke-linejoin:miter;stroke-miterlimit:10;stroke-dasharray:none;stroke-opacity:1" />
    <path
       id="path71"
       d="M 68.677012,162.44111 H 94.677439 V 148.94066 H 68.677012 Z"
       style="fill:#e9e9e9;fill-opacity:1;fill-rule:nonzero;stroke:#231f20;stroke-width:0.176389;stroke-linecap:butt;stroke-linejoin:miter;stroke-miterlimit:10;stroke-dasharray:none;stroke-opacity:1" />
    <path
       id="path72"
       d="m 130.44628,135.69068 h 15.00011 v 20.00038 h -3.74015"
       style="fill:none;stroke:#127bca;stroke-width:0.352777;stroke-linecap:butt;stroke-linejoin:miter;stroke-miterlimit:10;stroke-dasharray:none;stroke-opacity:1" />
    <path
       id="path73"
       d="m 140.46094,155.69106 1.75507,-0.7172 -0.41663,0.7172 0.41663,0.71685 -1.75507,-0.71685"
       style="fill:#127bca;fill-opacity:1;fill-rule:nonzero;stroke:none;stroke-width:0.352777" />
    <path
       id="path74"
       d="M 102.99841,155.69106 H 96.026816"
       style="fill:none;stroke:#127bca;stroke-width:0.352777;stroke-linecap:butt;stroke-linejoin:miter;stroke-miterlimit:10;stroke-dasharray:none;stroke-opacity:1" />
    <path
       id="path75"
       d="m 94.78151,155.69106 1.755068,-0.7172 -0.416628,0.7172 0.416628,0.71685 -1.755068,-0.71685"
       style="fill:#127bca;fill-opacity:1;fill-rule:nonzero;stroke:none;stroke-width:0.352777" />
    <path
       id="path76"
       d="M 68.677015,155.69106 H 64.676867 V 135.69068 H 76.558775"
       style="fill:none;stroke:#127bca;stroke-width:0.352777;stroke-linecap:butt;stroke-linejoin:miter;stroke-miterlimit:10;stroke-dasharray:none;stroke-opacity:1" />
    <path
       id="path77"
       d="m 77.804081,135.69068 -1.755068,0.7172 0.416628,-0.7172 -0.416628,-0.71684 1.755068,0.71684"
       style="fill:#127bca;fill-opacity:1;fill-rule:nonzero;stroke:none;stroke-width:0.352777" />
    <path
       id="path78"
       d="m 92.14,273.928 v -63.781 h 240.948 v 63.781 z"
       style="fill:none;stroke:#231f20;stroke-width:0.5;stroke-linecap:butt;stroke-linejoin:miter;stroke-miterlimit:10;stroke-dasharray:3, 3;stroke-dashoffset:0;stroke-opacity:1"
       transform="matrix(0.35277776,0,0,-0.35277776,30.024917,242.32658)"
       clip-path="url(#clipPath79)" />
    <path
       id="path147"
       d="m 88.112062,136.65061 h 0.926042 v -0.1819 h -0.711068 v -1.48002 h -0.214974 z m 2.119768,-0.55811 c 0,-0.0207 0.0083,-0.0579 0.0083,-0.0992 0,-0.22325 -0.103354,-0.56638 -0.496094,-0.56638 -0.347265,0 -0.558106,0.28526 -0.558106,0.64492 0,0.35967 0.219109,0.60358 0.587044,0.60358 0.190169,0 0.318328,-0.0413 0.396875,-0.0744 l -0.03721,-0.1571 c -0.08268,0.0372 -0.173633,0.062 -0.330729,0.062 -0.219107,0 -0.405143,-0.11989 -0.409276,-0.41342 z m -0.839224,-0.15709 c 0.02066,-0.14883 0.115755,-0.3514 0.334862,-0.3514 0.243914,0 0.301792,0.21497 0.301792,0.3514 z m 1.973006,0.7152 c -0.01241,-0.0827 -0.01654,-0.1819 -0.01654,-0.28525 v -0.44649 c 0,-0.23978 -0.09095,-0.49196 -0.454752,-0.49196 -0.152964,0 -0.293524,0.0455 -0.392742,0.10749 l 0.04961,0.14469 c 0.08268,-0.0537 0.198438,-0.0909 0.31006,-0.0909 0.243911,0 0.272852,0.17777 0.272852,0.27699 v 0.0248 c -0.463021,0 -0.719336,0.15709 -0.719336,0.44648 0,0.1695 0.124023,0.34314 0.363802,0.34314 0.169497,0 0.297656,-0.0868 0.367935,-0.17777 h 0.0041 l 0.02066,0.14883 z m -0.227378,-0.40101 c 0,0.0207 -0.0041,0.0455 -0.01241,0.0662 -0.03721,0.10335 -0.132291,0.20257 -0.289388,0.20257 -0.111622,0 -0.206705,-0.0661 -0.206705,-0.20671 0,-0.23564 0.272851,-0.27698 0.508494,-0.26872 z m 0.56224,0.40101 h 0.214974 v -0.63666 c 0,-0.0372 0.0041,-0.0703 0.0083,-0.10335 0.02894,-0.16123 0.136427,-0.27698 0.289388,-0.27698 0.03307,0 0.05374,0.004 0.07441,0.008 v -0.20669 c -0.02066,-0.004 -0.03721,-0.008 -0.06201,-0.008 -0.144696,0 -0.276987,0.10336 -0.33073,0.26459 h -0.0083 l -0.0083,-0.23565 H 91.68806 c 0.0083,0.11162 0.01241,0.23151 0.01241,0.37207 z m 0.807185,0 h 0.214974 v -0.71934 c 0,-0.0372 0.0041,-0.0744 0.01654,-0.0992 0.03721,-0.11988 0.148828,-0.22324 0.289388,-0.22324 0.206706,0 0.276984,0.16123 0.276984,0.3514 v 0.6904 h 0.21911 v -0.7152 c 0,-0.40928 -0.260451,-0.5085 -0.425816,-0.5085 -0.194302,0 -0.334861,0.11162 -0.392739,0.22738 H 92.702 l -0.01241,-0.19844 h -0.194304 c 0.0083,0.0992 0.01241,0.19844 0.01241,0.32246 z m 1.585434,0 v -1.19476 h -0.214974 v 1.19476 z m -0.107487,-1.66605 c -0.07855,0 -0.136424,0.0579 -0.136424,0.13643 0,0.0744 0.05374,0.13229 0.132291,0.13229 0.08682,0 0.140558,-0.0579 0.136425,-0.13229 0,-0.0786 -0.04961,-0.13643 -0.132292,-0.13643 z m 0.471289,1.66605 h 0.214974 v -0.71934 c 0,-0.0372 0.0041,-0.0744 0.01654,-0.0992 0.03721,-0.11988 0.148828,-0.22324 0.289388,-0.22324 0.206705,0 0.276987,0.16123 0.276987,0.3514 v 0.6904 h 0.219106 v -0.7152 c 0,-0.40928 -0.260448,-0.5085 -0.425812,-0.5085 -0.194305,0 -0.334865,0.11162 -0.392742,0.22738 h -0.0041 l -0.01241,-0.19844 h -0.194305 c 0.0083,0.0992 0.01241,0.19844 0.01241,0.32246 z m 2.209684,-1.19476 -0.01241,0.1819 h -0.0041 c -0.05374,-0.0992 -0.165364,-0.21084 -0.37207,-0.21084 -0.272852,0 -0.537435,0.23151 -0.537435,0.63665 0,0.33073 0.210839,0.58292 0.508495,0.58292 0.181901,0 0.31006,-0.0909 0.380338,-0.20258 h 0.0041 v 0.13643 c 0,0.30179 -0.165365,0.41754 -0.384474,0.41754 -0.148828,0 -0.272852,-0.0455 -0.351399,-0.0951 l -0.05374,0.16537 c 0.09508,0.062 0.25218,0.0992 0.396875,0.0992 0.148828,0 0.318326,-0.0372 0.434081,-0.14469 0.115755,-0.10335 0.1695,-0.27285 0.1695,-0.5457 v -0.69454 c 0,-0.14469 0.0041,-0.23977 0.01241,-0.32659 z m -0.03721,0.68626 c 0,0.0372 -0.0041,0.0786 -0.01654,0.11576 -0.04547,0.14056 -0.169497,0.22324 -0.301789,0.22324 -0.235645,0 -0.351401,-0.1943 -0.351401,-0.42995 0,-0.27698 0.148829,-0.45062 0.355534,-0.45062 0.157097,0 0.264584,0.10336 0.301792,0.22738 0.01241,0.0289 0.01241,0.062 0.01241,0.0992 z m 0.470254,-0.23977 v 0.16122 h 0.607717 v -0.16122 z m 1.043864,0.74827 0.0083,-0.19844 h 0.0083 c 0.08682,0.1571 0.227378,0.22738 0.396875,0.22738 0.268716,0 0.537435,-0.21498 0.537435,-0.64079 0.0041,-0.3638 -0.206706,-0.61185 -0.504362,-0.61185 -0.190169,0 -0.330729,0.0868 -0.405143,0.22324 h -0.0041 v -0.75241 H 97.96573 v 1.44281 c 0,0.10749 -0.0083,0.22738 -0.01241,0.31006 z m 0.03721,-0.69453 c 0,-0.0331 0.0041,-0.062 0.01241,-0.0868 0.04134,-0.16536 0.181901,-0.26872 0.330729,-0.26872 0.231511,0 0.351399,0.20671 0.351399,0.44649 0,0.27285 -0.132292,0.45889 -0.359667,0.45889 -0.157096,0 -0.285255,-0.10336 -0.326596,-0.25632 -0.0041,-0.0248 -0.0083,-0.0496 -0.0083,-0.0785 z m 2.045353,0.69453 c -0.0124,-0.0827 -0.0165,-0.1819 -0.0165,-0.28525 v -0.44649 c 0,-0.23978 -0.0909,-0.49196 -0.454758,-0.49196 -0.152961,0 -0.293521,0.0455 -0.39274,0.10749 l 0.04961,0.14469 c 0.08268,-0.0537 0.198438,-0.0909 0.310058,-0.0909 0.243914,0 0.272851,0.17777 0.272851,0.27699 v 0.0248 c -0.463021,0 -0.719336,0.15709 -0.719336,0.44648 0,0.1695 0.124024,0.34314 0.363802,0.34314 0.1695,0 0.297657,-0.0868 0.367943,-0.17777 h 0.004 l 0.0207,0.14883 z m -0.227377,-0.40101 c 0,0.0207 -0.0041,0.0455 -0.01241,0.0662 -0.03721,0.10335 -0.132292,0.20257 -0.289388,0.20257 -0.11162,0 -0.206706,-0.0661 -0.206706,-0.20671 0,-0.23564 0.272852,-0.27698 0.508498,-0.26872 z m 0.475427,0.34313 c 0.0868,0.0496 0.20671,0.0827 0.33486,0.0827 0.28526,0 0.45062,-0.14883 0.45062,-0.35966 0,-0.17777 -0.10749,-0.28112 -0.31419,-0.35967 -0.1571,-0.0579 -0.22738,-0.10335 -0.22738,-0.20257 0,-0.0868 0.0703,-0.16123 0.19844,-0.16123 0.11162,0 0.19844,0.0372 0.24391,0.0703 l 0.0537,-0.16124 c -0.0661,-0.0372 -0.16949,-0.0744 -0.29352,-0.0744 -0.25631,0 -0.40927,0.16123 -0.40927,0.3514 0,0.14469 0.0992,0.26458 0.31419,0.339 0.16123,0.0579 0.22324,0.11575 0.22324,0.21911 0,0.0992 -0.0744,0.17776 -0.23151,0.17776 -0.11162,0 -0.22324,-0.0455 -0.28939,-0.0868 z m 2.02365,-0.50023 c 0,-0.0207 0.008,-0.0579 0.008,-0.0992 0,-0.22325 -0.10336,-0.56638 -0.4961,-0.56638 -0.34726,0 -0.5581,0.28526 -0.5581,0.64492 0,0.35967 0.21911,0.60358 0.58704,0.60358 0.19017,0 0.31833,-0.0413 0.39688,-0.0744 l -0.0372,-0.1571 c -0.0827,0.0372 -0.17363,0.062 -0.33073,0.062 -0.21911,0 -0.40514,-0.11989 -0.40928,-0.41342 z m -0.83923,-0.15709 c 0.0207,-0.14883 0.11576,-0.3514 0.33486,-0.3514 0.24392,0 0.3018,0.21497 0.3018,0.3514 z m 1.93167,-1.03767 v 0.71521 h -0.008 c -0.0537,-0.0992 -0.17777,-0.18604 -0.35967,-0.18604 -0.28939,0 -0.53743,0.24805 -0.5333,0.64492 0,0.35967 0.21911,0.60772 0.5085,0.60772 0.1943,0 0.34313,-0.10336 0.40928,-0.23565 h 0.004 l 0.008,0.20671 h 0.19843 c -0.008,-0.0827 -0.0124,-0.20257 -0.0124,-0.31006 v -1.44281 z m 0,1.25264 c 0,0.0331 -0.004,0.062 -0.0124,0.0909 -0.0372,0.16537 -0.17363,0.26045 -0.31833,0.26045 -0.23564,0 -0.3514,-0.19844 -0.3514,-0.44235 0,-0.26458 0.13229,-0.45889 0.35554,-0.45889 0.16536,0 0.28112,0.11163 0.31419,0.25219 0.008,0.0248 0.0124,0.062 0.0124,0.0909 z m 1.91616,0.29352 c -0.062,0.0248 -0.1447,0.0579 -0.26872,0.0579 -0.23564,0 -0.41341,-0.1695 -0.41341,-0.44648 0,-0.24805 0.14883,-0.45062 0.42168,-0.45062 0.11989,0 0.19844,0.0248 0.25218,0.0579 l 0.0496,-0.1695 c -0.062,-0.0289 -0.17363,-0.062 -0.30179,-0.062 -0.38861,0 -0.64079,0.26871 -0.64079,0.63665 0,0.3638 0.23151,0.60771 0.59532,0.60771 0.15709,0 0.28525,-0.0413 0.34313,-0.0703 z m 0.79685,-1.01699 c -0.33073,0 -0.59118,0.23565 -0.59118,0.63665 0,0.37621 0.24805,0.61599 0.57051,0.61599 0.28939,0 0.59531,-0.19431 0.59531,-0.63666 0,-0.3638 -0.23151,-0.61598 -0.57464,-0.61598 z m -0.004,0.16537 c 0.25632,0 0.35554,0.25631 0.35554,0.45888 0,0.26872 -0.15297,0.46302 -0.35967,0.46302 -0.21497,0 -0.3638,-0.19843 -0.3638,-0.45888 0,-0.22738 0.11162,-0.46302 0.36793,-0.46302 z m 0.85473,1.05833 h 0.21498 v -0.71934 c 0,-0.0372 0.004,-0.0744 0.0165,-0.0992 0.0372,-0.11988 0.14883,-0.22324 0.28939,-0.22324 0.20671,0 0.27699,0.16123 0.27699,0.3514 v 0.6904 h 0.2191 v -0.7152 c 0,-0.40928 -0.26044,-0.5085 -0.42581,-0.5085 -0.1943,0 -0.33486,0.11162 -0.39274,0.22738 h -0.004 l -0.0124,-0.19844 h -0.1943 c 0.008,0.0992 0.0124,0.19844 0.0124,0.32246 z m 1.4211,-1.48001 v 0.28525 H 108.389 v 0.16537 h 0.18603 v 0.65319 c 0,0.14056 0.0207,0.24391 0.0827,0.31005 0.0496,0.0579 0.13229,0.0909 0.23564,0.0909 0.0827,0 0.14883,-0.0124 0.19017,-0.0289 l -0.008,-0.16537 c -0.0289,0.008 -0.0703,0.0165 -0.12816,0.0165 -0.11989,0 -0.16123,-0.0827 -0.16123,-0.23151 v -0.64492 h 0.31006 v -0.16537 h -0.31006 v -0.34313 z m 0.76688,1.48001 h 0.21498 v -0.63666 c 0,-0.0372 0.004,-0.0703 0.008,-0.10335 0.0289,-0.16123 0.13643,-0.27698 0.28939,-0.27698 0.0331,0 0.0537,0.004 0.0744,0.008 v -0.20669 c -0.0207,-0.004 -0.0372,-0.008 -0.062,-0.008 -0.14469,0 -0.27698,0.10336 -0.33073,0.26459 h -0.008 l -0.008,-0.23565 h -0.19017 c 0.008,0.11162 0.0124,0.23151 0.0124,0.37207 z m 1.31258,-1.2237 c -0.33073,0 -0.59118,0.23565 -0.59118,0.63665 0,0.37621 0.24805,0.61599 0.57051,0.61599 0.28939,0 0.59531,-0.19431 0.59531,-0.63666 0,-0.3638 -0.23151,-0.61598 -0.57464,-0.61598 z m -0.004,0.16537 c 0.25631,0 0.35553,0.25631 0.35553,0.45888 0,0.26872 -0.15296,0.46302 -0.35967,0.46302 -0.21497,0 -0.3638,-0.19843 -0.3638,-0.45888 0,-0.22738 0.11162,-0.46302 0.36794,-0.46302 z m 0.85472,1.05833 h 0.21498 v -1.75287 h -0.21498 z m 0.58291,0 h 0.21498 v -1.75287 h -0.21498 z m 1.54203,-0.55811 c 0,-0.0207 0.008,-0.0579 0.008,-0.0992 0,-0.22325 -0.10335,-0.56638 -0.49609,-0.56638 -0.34726,0 -0.5581,0.28526 -0.5581,0.64492 0,0.35967 0.2191,0.60358 0.58704,0.60358 0.19017,0 0.31833,-0.0413 0.39688,-0.0744 l -0.0372,-0.1571 c -0.0827,0.0372 -0.17364,0.062 -0.33073,0.062 -0.21911,0 -0.40514,-0.11989 -0.40928,-0.41342 z m -0.83923,-0.15709 c 0.0207,-0.14883 0.11576,-0.3514 0.33487,-0.3514 0.24391,0 0.30179,0.21497 0.30179,0.3514 z m 1.11725,0.7152 h 0.21497 v -0.63666 c 0,-0.0372 0.004,-0.0703 0.008,-0.10335 0.0289,-0.16123 0.13642,-0.27698 0.28939,-0.27698 0.0331,0 0.0537,0.004 0.0744,0.008 v -0.20669 c -0.0207,-0.004 -0.0372,-0.008 -0.062,-0.008 -0.1447,0 -0.27699,0.10336 -0.33073,0.26459 h -0.008 l -0.008,-0.23565 h -0.19017 c 0.008,0.11162 0.0124,0.23151 0.0124,0.37207 z m 0,0"
       style="fill:#231f20;fill-opacity:1;fill-rule:nonzero;stroke:none;stroke-width:0.352777"
       aria-label="Learning-based controller " />
    <path
       id="path148"
       d="m 116.37597,135.50959 c -0.0413,0.0661 -0.0661,0.0703 -0.13229,0.0703 -0.19844,0 -0.42168,-0.008 -0.60771,-0.008 -0.27699,0 -0.39275,0.14056 -0.45889,0.23151 l 0.0413,0.0579 c 0.091,-0.0992 0.18603,-0.1447 0.32659,-0.1447 -0.0496,0.30179 -0.22737,0.78548 -0.3762,0.92604 l 0.0124,0.0372 c 0.0455,0 0.12815,-0.0207 0.19017,-0.0579 0.11575,-0.1695 0.23564,-0.61598 0.28939,-0.90123 0.10748,0 0.2067,0.004 0.35139,0.008 -0.0413,0.17777 -0.0992,0.40515 -0.15296,0.66146 -0.0455,0.21911 0,0.28939 0.0827,0.28939 0.10336,0 0.23152,-0.0868 0.33487,-0.21498 l -0.0331,-0.062 c -0.0579,0.0538 -0.14056,0.10336 -0.17776,0.10336 -0.0289,0 -0.0413,-0.0413 -0.0124,-0.17777 0.0372,-0.21498 0.0827,-0.43408 0.11989,-0.59532 0.0496,0 0.14056,0.004 0.17777,-0.008 0.0248,-0.0331 0.0579,-0.0951 0.091,-0.19017 z m 0,0"
       style="fill:#231f20;fill-opacity:1;fill-rule:nonzero;stroke:none;stroke-width:0.352777"
       aria-label="π" />
    <path
       id="path149"
       d="m 116.8917,135.91784 0.24805,0.0207 c 0.0661,0.004 0.11575,0.004 0.16123,0.004 0.10748,0 0.2067,-0.0372 0.29765,-0.11162 0.0537,-0.0455 0.0786,-0.0785 0.0786,-0.0951 0,-0.004 -0.004,-0.0165 -0.0124,-0.0248 -0.0786,0.0827 -0.18603,0.11989 -0.32659,0.11989 -0.0289,0 -0.0579,0 -0.0827,0 l -0.0951,-0.008 -0.0744,-0.004 -0.17777,-0.0124 c 0.0868,-0.0496 0.14469,-0.11162 0.17777,-0.18604 0.0289,-0.0744 0.0455,-0.19017 0.0455,-0.3514 v -0.11575 c 0,-0.20671 0.062,-0.30593 0.19017,-0.30593 0.0496,0 0.0992,0.0165 0.15296,0.0496 l 0.12403,-0.12402 c -0.0496,-0.0207 -0.0951,-0.0331 -0.14056,-0.0331 -0.10749,0 -0.20671,0.0413 -0.3018,0.11989 -0.11575,0.0951 -0.17363,0.22737 -0.17363,0.39687 l -0.004,0.12816 c 0,0.12402 -0.0124,0.21911 -0.0372,0.28112 -0.0289,0.0579 -0.0744,0.10335 -0.13643,0.12816 -0.0331,-0.004 -0.0661,-0.008 -0.11162,-0.0165 l -0.14056,0.11162 c 0.0951,0.008 0.2067,0.0207 0.339,0.0289 z m 0,0"
       style="fill:#231f20;fill-opacity:1;fill-rule:nonzero;stroke:none;stroke-width:0.352777"
       aria-label="L" />
    <path
       id="path150"
       d="m 118.27663,134.93908 c -0.15297,0.20671 -0.31833,0.5209 -0.32246,1.00873 0,0.47956 0.16949,0.79788 0.32246,1.00045 h 0.17363 c -0.17777,-0.24391 -0.31419,-0.56223 -0.31419,-1.00045 0,-0.44649 0.13229,-0.76895 0.31419,-1.00873 z m 0,0"
       style="fill:#231f20;fill-opacity:1;fill-rule:nonzero;stroke:none;stroke-width:0.352777"
       aria-label="(" />
    <path
       id="path151"
       d="m 118.70865,135.85273 c 0.0868,-0.11163 0.13642,-0.14056 0.16122,-0.14056 0.0248,0 0.0455,0.0331 0.0785,0.15296 l 0.0868,0.25631 c -0.15296,0.23151 -0.27285,0.37207 -0.34313,0.37207 -0.0248,0 -0.0455,-0.008 -0.0579,-0.0248 -0.0124,-0.0124 -0.0248,-0.0248 -0.0372,-0.0248 -0.0455,0 -0.0992,0.0579 -0.0992,0.11989 -0.004,0.0661 0.0496,0.11575 0.11163,0.11575 0.11988,0 0.23151,-0.11989 0.45061,-0.46715 l 0.0785,0.23978 c 0.0455,0.15709 0.0992,0.22737 0.16123,0.22737 0.0868,0 0.19844,-0.091 0.3142,-0.26458 l -0.0413,-0.0496 c -0.0785,0.091 -0.14056,0.14056 -0.17776,0.14056 -0.0413,0 -0.0785,-0.0703 -0.12816,-0.22738 l -0.0786,-0.24391 c 0.0537,-0.0786 0.10749,-0.14469 0.16123,-0.20257 0.062,-0.0827 0.11162,-0.12402 0.14883,-0.12402 0.0207,0 0.0413,0.008 0.0579,0.0289 0.0124,0.0124 0.0207,0.0207 0.0331,0.0207 0.0372,0 0.0951,-0.0496 0.0992,-0.10749 0,-0.0579 -0.0413,-0.10748 -0.10335,-0.10748 -0.11162,0 -0.21498,0.10748 -0.42168,0.40514 l -0.0455,-0.13642 c -0.0579,-0.17777 -0.0909,-0.26872 -0.15709,-0.26872 -0.0786,0 -0.19017,0.10748 -0.29353,0.25631 z m 0,0"
       style="fill:#231f20;fill-opacity:1;fill-rule:nonzero;stroke:none;stroke-width:0.352777"
       aria-label="x" />
    <path
       id="path152"
       d="m 119.94681,136.94826 c 0.1571,-0.21083 0.32246,-0.52089 0.32246,-1.00458 0,-0.48783 -0.16536,-0.80202 -0.32246,-1.0046 h -0.1695 c 0.17777,0.24392 0.31006,0.55811 0.31006,1.00046 0,0.44649 -0.13642,0.76481 -0.31006,1.00872 z m 0,0"
       style="fill:#231f20;fill-opacity:1;fill-rule:nonzero;stroke:none;stroke-width:0.352777"
       aria-label=")" />
    <path
       id="path153"
       d="m 114.5983,154.6216 h 0.20671 l -0.10336,-1.66191 h -0.27285 l -0.29766,0.80202 c -0.0744,0.21084 -0.13229,0.39274 -0.17363,0.56224 h -0.008 c -0.0413,-0.17364 -0.0992,-0.35554 -0.16537,-0.56224 l -0.28525,-0.80202 h -0.27285 l -0.11576,1.66191 h 0.20257 l 0.0455,-0.7152 c 0.0165,-0.24804 0.0248,-0.52503 0.0331,-0.73174 h 0.004 c 0.0455,0.19431 0.11162,0.40928 0.19017,0.64492 l 0.27285,0.79375 h 0.16123 l 0.29352,-0.81028 c 0.0827,-0.22738 0.15297,-0.43408 0.21084,-0.62839 h 0.004 c 0,0.20671 0.0124,0.4837 0.0248,0.71521 z m 1.0387,-1.22369 c -0.33073,0 -0.59118,0.23564 -0.59118,0.63665 0,0.3762 0.24804,0.61598 0.57051,0.61598 0.28938,0 0.59531,-0.1943 0.59531,-0.63665 0,-0.3638 -0.23151,-0.61598 -0.57464,-0.61598 z m -0.004,0.16536 c 0.25631,0 0.35553,0.25631 0.35553,0.45889 0,0.26871 -0.15296,0.46302 -0.35966,0.46302 -0.21498,0 -0.36381,-0.19844 -0.36381,-0.45889 0,-0.22737 0.11162,-0.46302 0.36794,-0.46302 z m 1.67018,-0.69453 v 0.7152 h -0.008 c -0.0537,-0.0992 -0.17777,-0.18603 -0.35967,-0.18603 -0.28939,0 -0.53744,0.24804 -0.5333,0.64492 0,0.35967 0.2191,0.60771 0.50849,0.60771 0.19431,0 0.34314,-0.10335 0.40928,-0.23564 h 0.004 l 0.008,0.2067 h 0.19844 c -0.008,-0.0827 -0.0124,-0.20257 -0.0124,-0.31005 v -1.44281 z m 0,1.25264 c 0,0.0331 -0.004,0.062 -0.0124,0.091 -0.0372,0.16536 -0.17363,0.26044 -0.31832,0.26044 -0.23565,0 -0.3514,-0.19843 -0.3514,-0.44234 0,-0.26459 0.13229,-0.45889 0.35553,-0.45889 0.16536,0 0.28112,0.11162 0.31419,0.25218 0.008,0.0248 0.0124,0.062 0.0124,0.0909 z m 1.53686,-0.0579 c 0,-0.0207 0.008,-0.0579 0.008,-0.0992 0,-0.22324 -0.10336,-0.56637 -0.4961,-0.56637 -0.34726,0 -0.5581,0.28525 -0.5581,0.64492 0,0.35967 0.2191,0.60358 0.58704,0.60358 0.19017,0 0.31833,-0.0413 0.39688,-0.0744 l -0.0372,-0.15709 c -0.0827,0.0372 -0.17363,0.062 -0.33073,0.062 -0.21911,0 -0.40514,-0.11989 -0.40928,-0.41341 z m -0.83923,-0.1571 c 0.0207,-0.14883 0.11576,-0.3514 0.33487,-0.3514 0.24391,0 0.30179,0.21498 0.30179,0.3514 z m 1.11725,0.7152 h 0.21497 v -1.75286 h -0.21497 z m 1.10691,0.48783 h 0.21497 v -0.64906 h 0.004 c 0.0703,0.11989 0.2067,0.19017 0.36793,0.19017 0.28112,0 0.54157,-0.21497 0.54157,-0.64492 0,-0.35967 -0.21911,-0.60771 -0.50436,-0.60771 -0.19844,0 -0.339,0.0868 -0.42581,0.23564 h -0.004 l -0.0124,-0.2067 h -0.1943 c 0.004,0.11575 0.0124,0.23564 0.0124,0.3886 z m 0.21497,-1.17822 c 0,-0.0289 0.004,-0.062 0.0124,-0.0909 0.0413,-0.16124 0.1819,-0.26872 0.33073,-0.26872 0.22738,0 0.3514,0.2067 0.3514,0.44648 0,0.27285 -0.13229,0.45889 -0.35967,0.45889 -0.15709,0 -0.28939,-0.10335 -0.32659,-0.25218 -0.004,-0.0289 -0.008,-0.0579 -0.008,-0.0909 z m 1.18959,0.69039 h 0.21498 v -0.63665 c 0,-0.0372 0.004,-0.0703 0.008,-0.10335 0.0289,-0.16123 0.13643,-0.27699 0.28939,-0.27699 0.0331,0 0.0537,0.004 0.0744,0.008 v -0.20671 c -0.0207,-0.004 -0.0372,-0.008 -0.062,-0.008 -0.14469,0 -0.27698,0.10335 -0.33073,0.26458 h -0.008 l -0.008,-0.23564 h -0.19017 c 0.008,0.11161 0.0124,0.23151 0.0124,0.37207 z m 1.76734,-0.5581 c 0,-0.0207 0.008,-0.0579 0.008,-0.0992 0,-0.22324 -0.10336,-0.56637 -0.4961,-0.56637 -0.34726,0 -0.5581,0.28525 -0.5581,0.64492 0,0.35967 0.21911,0.60358 0.58704,0.60358 0.19017,0 0.31833,-0.0413 0.39688,-0.0744 l -0.0372,-0.15709 c -0.0827,0.0372 -0.17363,0.062 -0.33073,0.062 -0.21911,0 -0.40514,-0.11989 -0.40928,-0.41341 z m -0.83923,-0.1571 c 0.0207,-0.14883 0.11576,-0.3514 0.33486,-0.3514 0.24392,0 0.3018,0.21498 0.3018,0.3514 z m 1.93167,-1.03766 v 0.7152 h -0.008 c -0.0538,-0.0992 -0.17777,-0.18603 -0.35967,-0.18603 -0.28939,0 -0.53744,0.24804 -0.5333,0.64492 0,0.35967 0.21911,0.60771 0.50849,0.60771 0.19431,0 0.34313,-0.10335 0.40928,-0.23564 h 0.004 l 0.008,0.2067 h 0.19844 c -0.008,-0.0827 -0.0124,-0.20257 -0.0124,-0.31005 v -1.44281 z m 0,1.25264 c 0,0.0331 -0.004,0.062 -0.0124,0.091 -0.0372,0.16536 -0.17363,0.26044 -0.31833,0.26044 -0.23564,0 -0.3514,-0.19843 -0.3514,-0.44234 0,-0.26459 0.13229,-0.45889 0.35554,-0.45889 0.16536,0 0.28112,0.11162 0.31419,0.25218 0.008,0.0248 0.0124,0.062 0.0124,0.0909 z m 0.79271,0.50022 v -1.19475 h -0.21497 v 1.19475 z m -0.10748,-1.66604 c -0.0785,0 -0.13643,0.0579 -0.13643,0.13642 0,0.0744 0.0537,0.13229 0.13229,0.13229 0.0868,0 0.14056,-0.0579 0.13643,-0.13229 0,-0.0786 -0.0496,-0.13642 -0.13229,-0.13642 z m 1.28467,1.45934 c -0.062,0.0248 -0.14469,0.0579 -0.26871,0.0579 -0.23565,0 -0.41342,-0.16949 -0.41342,-0.44648 0,-0.24805 0.14883,-0.45062 0.42168,-0.45062 0.11989,0 0.19844,0.0248 0.25218,0.0579 l 0.0496,-0.1695 c -0.062,-0.0289 -0.17363,-0.062 -0.30179,-0.062 -0.3886,0 -0.64078,0.26872 -0.64078,0.63665 0,0.36381 0.23151,0.60772 0.59531,0.60772 0.15709,0 0.28525,-0.0413 0.34313,-0.0703 z m 0.3421,-1.27331 v 0.28526 h -0.18603 v 0.16536 h 0.18603 v 0.65319 c 0,0.14056 0.0207,0.24391 0.0827,0.31006 0.0496,0.0579 0.13229,0.0909 0.23565,0.0909 0.0827,0 0.14882,-0.0124 0.19017,-0.0289 l -0.008,-0.16536 c -0.0289,0.008 -0.0703,0.0165 -0.12816,0.0165 -0.11989,0 -0.16123,-0.0827 -0.16123,-0.23151 v -0.64492 h 0.31006 v -0.16536 h -0.31006 v -0.34314 z m 0.98289,1.48001 v -1.19475 h -0.21498 v 1.19475 z m -0.10749,-1.66604 c -0.0786,0 -0.13643,0.0579 -0.13643,0.13642 0,0.0744 0.0538,0.13229 0.1323,0.13229 0.0868,0 0.14056,-0.0579 0.13642,-0.13229 0,-0.0786 -0.0496,-0.13642 -0.13229,-0.13642 z m 0.32143,0.47129 0.45475,1.19475 h 0.20671 l 0.46715,-1.19475 h -0.22738 l -0.23151,0.66972 c -0.0372,0.11162 -0.0744,0.21084 -0.0992,0.30593 h -0.008 c -0.0248,-0.0951 -0.0579,-0.19431 -0.0951,-0.30593 l -0.23564,-0.66972 z m 2.29546,0.63665 c 0,-0.0207 0.008,-0.0579 0.008,-0.0992 0,-0.22324 -0.10335,-0.56637 -0.49609,-0.56637 -0.34727,0 -0.55811,0.28525 -0.55811,0.64492 0,0.35967 0.21911,0.60358 0.58705,0.60358 0.19016,0 0.31832,-0.0413 0.39687,-0.0744 l -0.0372,-0.15709 c -0.0827,0.0372 -0.17363,0.062 -0.33073,0.062 -0.2191,0 -0.40514,-0.11989 -0.40927,-0.41341 z m -0.83922,-0.1571 c 0.0207,-0.14883 0.11575,-0.3514 0.33486,-0.3514 0.24391,0 0.30179,0.21498 0.30179,0.3514 z m 0,0"
       style="fill:#231f20;fill-opacity:1;fill-rule:nonzero;stroke:none;stroke-width:0.352777"
       aria-label="Model predictive" />
    <path
       id="path154"
       d="m 111.85015,157.38629 c 0.0868,0.0496 0.2067,0.0827 0.33486,0.0827 0.28526,0 0.45062,-0.14882 0.45062,-0.35966 0,-0.17777 -0.10749,-0.28112 -0.31419,-0.35967 -0.1571,-0.0579 -0.22738,-0.10335 -0.22738,-0.20257 0,-0.0868 0.0703,-0.16123 0.19844,-0.16123 0.11162,0 0.19844,0.0372 0.24391,0.0703 l 0.0537,-0.16123 c -0.0661,-0.0372 -0.1695,-0.0744 -0.29353,-0.0744 -0.25631,0 -0.40927,0.16123 -0.40927,0.3514 0,0.1447 0.0992,0.26459 0.31419,0.339 0.16123,0.0579 0.22324,0.11576 0.22324,0.21911 0,0.0992 -0.0744,0.17777 -0.23151,0.17777 -0.11162,0 -0.22324,-0.0455 -0.28939,-0.0868 z m 1.92029,0.0579 c -0.0124,-0.0827 -0.0165,-0.1819 -0.0165,-0.28525 v -0.44649 c 0,-0.23978 -0.091,-0.49196 -0.45476,-0.49196 -0.15296,0 -0.29352,0.0455 -0.39273,0.10749 l 0.0496,0.14469 c 0.0827,-0.0537 0.19844,-0.0909 0.31006,-0.0909 0.24392,0 0.27285,0.17777 0.27285,0.27699 v 0.0248 c -0.46302,0 -0.71933,0.1571 -0.71933,0.44648 0,0.1695 0.12402,0.34314 0.3638,0.34314 0.1695,0 0.29766,-0.0868 0.36794,-0.17777 h 0.004 l 0.0207,0.14883 z m -0.22737,-0.40101 c 0,0.0207 -0.004,0.0455 -0.0124,0.0661 -0.0372,0.10335 -0.13229,0.20257 -0.28939,0.20257 -0.11162,0 -0.2067,-0.0661 -0.2067,-0.20671 0,-0.23564 0.27285,-0.27698 0.50849,-0.26871 z m 0.79788,0.40101 v -1.02939 h 0.28939 v -0.16537 h -0.28939 v -0.062 c 0,-0.18603 0.0455,-0.34727 0.23151,-0.34727 0.062,0 0.10749,0.0124 0.13643,0.0289 l 0.0331,-0.1695 c -0.0455,-0.0165 -0.11162,-0.0331 -0.18603,-0.0331 -0.10336,0 -0.21084,0.0289 -0.29353,0.10749 -0.0992,0.0992 -0.13642,0.25218 -0.13642,0.41754 v 0.0579 h -0.1695 v 0.16537 h 0.1695 v 1.02939 z m 1.44488,-0.5581 c 0,-0.0207 0.008,-0.0579 0.008,-0.0992 0,-0.22325 -0.10335,-0.56638 -0.49609,-0.56638 -0.34727,0 -0.55811,0.28526 -0.55811,0.64492 0,0.35967 0.21911,0.60358 0.58705,0.60358 0.19017,0 0.31832,-0.0413 0.39687,-0.0744 l -0.0372,-0.1571 c -0.0827,0.0372 -0.17364,0.062 -0.33073,0.062 -0.21911,0 -0.40515,-0.11989 -0.40928,-0.41341 z m -0.83923,-0.1571 c 0.0207,-0.14883 0.11576,-0.3514 0.33486,-0.3514 0.24392,0 0.30179,0.21497 0.30179,0.3514 z m 1.16685,-0.76481 v 0.28525 h -0.18603 v 0.16537 h 0.18603 v 0.65319 c 0,0.14056 0.0207,0.24391 0.0827,0.31005 0.0496,0.0579 0.13229,0.091 0.23564,0.091 0.0827,0 0.14883,-0.0124 0.19017,-0.0289 l -0.008,-0.16537 c -0.0289,0.008 -0.0703,0.0165 -0.12816,0.0165 -0.11989,0 -0.16123,-0.0827 -0.16123,-0.23151 v -0.64492 h 0.31006 v -0.16537 h -0.31006 v -0.34313 z m 0.60565,0.28525 0.44235,1.09968 c 0.0124,0.0289 0.0165,0.0455 0.0165,0.0579 0,0.0124 -0.008,0.0289 -0.0165,0.0538 -0.0496,0.10748 -0.12402,0.1943 -0.18603,0.23978 -0.062,0.0537 -0.1323,0.0909 -0.19017,0.10748 l 0.0579,0.1819 c 0.0538,-0.008 0.1571,-0.0455 0.26459,-0.14056 0.14883,-0.12815 0.25632,-0.33899 0.40928,-0.74827 l 0.32659,-0.85163 h -0.23151 l -0.23564,0.7028 c -0.0289,0.0827 -0.0537,0.17777 -0.0744,0.24805 h -0.008 c -0.0165,-0.0703 -0.0455,-0.16537 -0.0744,-0.24392 l -0.26045,-0.70693 z m 2.0836,1.19476 v -1.02939 h 0.47955 v 1.02939 h 0.21498 v -1.19476 h -0.69453 v -0.0579 c 0,-0.19016 0.0661,-0.3514 0.29765,-0.3514 0.10335,0 0.19844,0.0331 0.24805,0.0703 l 0.062,-0.16536 c -0.062,-0.0455 -0.19017,-0.0785 -0.30179,-0.0785 -0.33486,0 -0.5209,0.20257 -0.5209,0.5209 v 0.062 h -0.1695 v 0.16537 h 0.1695 v 1.02939 z m 1.05626,0 h 0.21498 v -1.75286 h -0.21498 z m 0.63252,-1.48001 v 0.28525 h -0.18603 v 0.16537 h 0.18603 v 0.65319 c 0,0.14056 0.0207,0.24391 0.0827,0.31005 0.0496,0.0579 0.1323,0.091 0.23565,0.091 0.0827,0 0.14883,-0.0124 0.19017,-0.0289 l -0.008,-0.16537 c -0.0289,0.008 -0.0703,0.0165 -0.12816,0.0165 -0.11989,0 -0.16123,-0.0827 -0.16123,-0.23151 v -0.64492 h 0.31006 v -0.16537 h -0.31006 v -0.34313 z m 1.72703,0.92191 c 0,-0.0207 0.008,-0.0579 0.008,-0.0992 0,-0.22325 -0.10335,-0.56638 -0.49609,-0.56638 -0.34727,0 -0.55811,0.28526 -0.55811,0.64492 0,0.35967 0.21911,0.60358 0.58705,0.60358 0.19017,0 0.31832,-0.0413 0.39687,-0.0744 l -0.0372,-0.1571 c -0.0827,0.0372 -0.17364,0.062 -0.33073,0.062 -0.21911,0 -0.40515,-0.11989 -0.40928,-0.41341 z m -0.83923,-0.1571 c 0.0207,-0.14883 0.11576,-0.3514 0.33487,-0.3514 0.24391,0 0.30179,0.21497 0.30179,0.3514 z m 1.11725,0.7152 h 0.21497 v -0.63665 c 0,-0.0372 0.004,-0.0703 0.008,-0.10336 0.0289,-0.16123 0.13643,-0.27698 0.28939,-0.27698 0.0331,0 0.0537,0.004 0.0744,0.008 v -0.2067 c -0.0207,-0.004 -0.0372,-0.008 -0.062,-0.008 -0.14469,0 -0.27698,0.10336 -0.33073,0.26459 h -0.008 l -0.008,-0.23565 h -0.19017 c 0.008,0.11162 0.0124,0.23151 0.0124,0.37207 z m 0,0"
       style="fill:#231f20;fill-opacity:1;fill-rule:nonzero;stroke:none;stroke-width:0.352777"
       aria-label="safety flter " />
    <path
       id="path155"
       d="m 124.96356,156.30315 c -0.0413,0.0662 -0.0662,0.0703 -0.13229,0.0703 -0.19844,0 -0.42168,-0.008 -0.60772,-0.008 -0.27698,0 -0.39274,0.14056 -0.45888,0.23151 l 0.0413,0.0579 c 0.091,-0.0992 0.18603,-0.1447 0.32659,-0.1447 -0.0496,0.3018 -0.22737,0.78549 -0.3762,0.92604 l 0.0124,0.0372 c 0.0455,0 0.12816,-0.0207 0.19017,-0.0579 0.11575,-0.1695 0.23564,-0.61599 0.28938,-0.90124 0.10749,0 0.20671,0.004 0.35141,0.008 -0.0414,0.17777 -0.0992,0.40515 -0.15297,0.66146 -0.0455,0.21911 0,0.28939 0.0827,0.28939 0.10336,0 0.23151,-0.0868 0.33487,-0.21497 l -0.0331,-0.062 c -0.0579,0.0537 -0.14056,0.10336 -0.17777,0.10336 -0.0289,0 -0.0413,-0.0413 -0.0124,-0.17777 0.0372,-0.21497 0.0827,-0.43408 0.11989,-0.59531 0.0496,0 0.14056,0.004 0.17776,-0.008 0.0248,-0.0331 0.0579,-0.0951 0.091,-0.19017 z m 0,0"
       style="fill:#231f20;fill-opacity:1;fill-rule:nonzero;stroke:none;stroke-width:0.352777"
       aria-label="π" />
    <path
       id="path156"
       d="m 125.21574,156.36413 c 0.004,0.12403 0.004,0.21911 0.004,0.25632 0.0372,0.0455 0.16123,0.10748 0.29765,0.10748 0.19844,0 0.37621,-0.12815 0.37621,-0.33072 0,-0.13643 -0.0786,-0.22325 -0.19844,-0.3142 l -0.0537,-0.0372 c -0.0909,-0.0703 -0.16124,-0.13229 -0.16124,-0.23151 0,-0.10749 0.0744,-0.20258 0.19431,-0.20258 0.14883,0 0.1943,0.11576 0.2067,0.24805 l 0.0496,-0.008 c 0.004,-0.0744 0,-0.1695 0.008,-0.23978 -0.0165,-0.004 -0.0455,-0.0165 -0.0785,-0.0289 -0.0455,-0.0165 -0.10748,-0.0289 -0.16123,-0.0289 -0.21084,0 -0.3514,0.12816 -0.3514,0.31006 0,0.14469 0.11162,0.23978 0.19017,0.30179 l 0.0496,0.0372 c 0.0992,0.0785 0.16123,0.14469 0.16123,0.24391 0,0.13643 -0.0827,0.22324 -0.20671,0.22324 -0.19016,0 -0.26044,-0.17777 -0.28112,-0.31006 z m 0,0"
       style="fill:#231f20;fill-opacity:1;fill-rule:nonzero;stroke:none;stroke-width:0.352777"
       aria-label="S" />
    <path
       id="path157"
       d="m 126.43737,155.73265 c -0.15296,0.2067 -0.31832,0.5209 -0.32246,1.00872 0,0.47956 0.1695,0.79789 0.32246,1.00046 h 0.17363 c -0.17776,-0.24392 -0.31419,-0.56224 -0.31419,-1.00046 0,-0.44648 0.13229,-0.76894 0.31419,-1.00872 z m 0,0"
       style="fill:#231f20;fill-opacity:1;fill-rule:nonzero;stroke:none;stroke-width:0.352777"
       aria-label="(" />
    <path
       id="path158"
       d="m 126.93243,156.64629 c 0.0868,-0.11162 0.13643,-0.14056 0.16123,-0.14056 0.0248,0 0.0455,0.0331 0.0786,0.15296 l 0.0868,0.25632 c -0.15296,0.23151 -0.27286,0.37207 -0.34313,0.37207 -0.0248,0 -0.0455,-0.008 -0.0579,-0.0248 -0.0124,-0.0124 -0.0248,-0.0248 -0.0372,-0.0248 -0.0455,0 -0.0992,0.0579 -0.0992,0.11989 -0.004,0.0661 0.0496,0.11576 0.11162,0.11576 0.11989,0 0.23151,-0.11989 0.45062,-0.46716 l 0.0786,0.23978 c 0.0455,0.1571 0.0992,0.22738 0.16123,0.22738 0.0868,0 0.19844,-0.0909 0.31419,-0.26459 l -0.0413,-0.0496 c -0.0785,0.0909 -0.14056,0.14056 -0.17776,0.14056 -0.0414,0 -0.0786,-0.0703 -0.12816,-0.22737 l -0.0785,-0.24392 c 0.0537,-0.0785 0.10749,-0.14469 0.16123,-0.20257 0.062,-0.0827 0.11162,-0.12402 0.14883,-0.12402 0.0207,0 0.0413,0.008 0.0579,0.0289 0.0124,0.0124 0.0207,0.0207 0.0331,0.0207 0.0372,0 0.0951,-0.0496 0.0992,-0.10748 0,-0.0579 -0.0413,-0.10749 -0.10336,-0.10749 -0.11162,0 -0.21497,0.10749 -0.42167,0.40514 l -0.0455,-0.13643 c -0.0579,-0.17776 -0.091,-0.26871 -0.1571,-0.26871 -0.0785,0 -0.19017,0.10749 -0.29352,0.25631 z m 0.97772,1.079 c 0.1571,-0.0496 0.339,-0.15709 0.34727,-0.3514 0.008,-0.12815 -0.0744,-0.24391 -0.17364,-0.24391 -0.062,0 -0.11989,0.0496 -0.12402,0.11576 0,0.0207 0.0124,0.0289 0.0207,0.0372 0.0703,0.0207 0.11576,0.0703 0.11576,0.14883 -0.004,0.0951 -0.0992,0.17363 -0.21498,0.22324 z m 1.77457,-0.56224 c -0.0661,0.0703 -0.1571,0.12816 -0.17777,0.12816 -0.0165,0 -0.0248,-0.0207 -0.008,-0.0951 0.062,-0.32247 0.12402,-0.59945 0.1943,-0.8599 h -0.0289 l -0.1695,0.062 c -0.0331,0.15296 -0.062,0.28526 -0.091,0.39688 -0.0951,0.1819 -0.37207,0.51263 -0.50849,0.51263 -0.0372,0 -0.0579,-0.0455 -0.0289,-0.16537 0.0455,-0.19844 0.0909,-0.39687 0.13229,-0.59118 0.0413,-0.16536 0.0331,-0.21497 -0.0248,-0.21497 -0.0661,0 -0.21911,0.0868 -0.36381,0.23151 l 0.029,0.0579 c 0.0827,-0.0661 0.15296,-0.11576 0.16949,-0.11576 0.0207,0 0.0248,0.0207 0.008,0.0827 -0.0455,0.18603 -0.0868,0.3762 -0.13229,0.56637 -0.0661,0.26872 0.0165,0.31419 0.0827,0.31419 0.0579,0 0.12816,-0.0248 0.19844,-0.0744 0.13229,-0.0909 0.27698,-0.24392 0.39687,-0.40515 h 0.004 c -0.0165,0.0827 -0.0248,0.13229 -0.0455,0.21911 -0.0496,0.21498 -0.0165,0.26045 0.0372,0.26045 0.0744,0 0.23978,-0.10749 0.35553,-0.25218 z m 0,0"
       style="fill:#231f20;fill-opacity:1;fill-rule:nonzero;stroke:none;stroke-width:0.352777"
       aria-label="x,u" />
    <path
       id="path159"
       d="m 129.99271,157.94647 0.24805,0.0207 c 0.0661,0.004 0.11575,0.004 0.16123,0.004 0.10748,0 0.2067,-0.0372 0.29765,-0.11162 0.0538,-0.0455 0.0786,-0.0786 0.0786,-0.0951 0,-0.004 -0.004,-0.0165 -0.0124,-0.0248 -0.0785,0.0827 -0.18603,0.11989 -0.32659,0.11989 -0.0289,0 -0.0579,0 -0.0827,0 l -0.0951,-0.008 -0.0744,-0.004 -0.17777,-0.0124 c 0.0868,-0.0496 0.14469,-0.11162 0.17777,-0.18604 0.0289,-0.0744 0.0455,-0.19017 0.0455,-0.3514 v -0.11575 c 0,-0.20671 0.062,-0.30593 0.19017,-0.30593 0.0496,0 0.0992,0.0165 0.15296,0.0496 l 0.12403,-0.12402 c -0.0496,-0.0207 -0.0951,-0.0331 -0.14056,-0.0331 -0.10749,0 -0.20671,0.0413 -0.30179,0.11989 -0.11576,0.0951 -0.17364,0.22737 -0.17364,0.39687 l -0.004,0.12816 c 0,0.12402 -0.0124,0.21911 -0.0372,0.28112 -0.0289,0.0579 -0.0744,0.10335 -0.13643,0.12816 -0.0331,-0.004 -0.0661,-0.008 -0.11162,-0.0165 l -0.14056,0.11162 c 0.0951,0.008 0.20671,0.0207 0.339,0.0289 z m 0,0"
       style="fill:#231f20;fill-opacity:1;fill-rule:nonzero;stroke:none;stroke-width:0.352777"
       aria-label="L" />
    <path
       id="path160"
       d="m 131.11719,157.74183 c 0.15709,-0.21084 0.32246,-0.5209 0.32246,-1.00459 0,-0.48783 -0.16537,-0.80202 -0.32246,-1.00459 h -0.1695 c 0.17777,0.24391 0.31006,0.5581 0.31006,1.00045 0,0.44649 -0.13643,0.76481 -0.31006,1.00873 z m 0,0"
       style="fill:#231f20;fill-opacity:1;fill-rule:nonzero;stroke:none;stroke-width:0.352777"
       aria-label=")" />
    <path
       id="path161"
       d="m 75.090634,156.19774 c 0.09095,0.062 0.264583,0.10748 0.425815,0.10748 0.392739,0 0.582909,-0.22324 0.582909,-0.47955 0,-0.24392 -0.144693,-0.38034 -0.425813,-0.48783 -0.23151,-0.0909 -0.330729,-0.16536 -0.330729,-0.32246 0,-0.11162 0.08682,-0.24805 0.314193,-0.24805 0.148828,0 0.260448,0.0496 0.314192,0.0786 l 0.06201,-0.17363 c -0.07441,-0.0413 -0.198438,-0.0827 -0.367935,-0.0827 -0.326597,0 -0.54157,0.19431 -0.54157,0.45062 0,0.23565 0.1695,0.37621 0.442351,0.47129 0.223242,0.0868 0.314193,0.17777 0.314193,0.33073 0,0.1695 -0.132292,0.28526 -0.351401,0.28526 -0.144693,0 -0.289388,-0.0496 -0.384472,-0.10749 z m 1.134813,-1.11208 0.442352,1.09967 c 0.01241,0.0289 0.01654,0.0455 0.01654,0.0579 0,0.0124 -0.0083,0.0289 -0.01654,0.0538 -0.04961,0.10748 -0.124023,0.1943 -0.186037,0.23977 -0.06201,0.0538 -0.132291,0.0909 -0.190169,0.10749 l 0.05788,0.1819 c 0.05375,-0.008 0.157096,-0.0455 0.264583,-0.14056 0.148828,-0.12816 0.256315,-0.339 0.409279,-0.74827 l 0.326594,-0.85163 h -0.231511 l -0.235643,0.7028 c -0.02894,0.0827 -0.05375,0.17777 -0.07441,0.24804 h -0.0083 c -0.01654,-0.0703 -0.04548,-0.16536 -0.07441,-0.24391 l -0.260451,-0.70693 z m 1.238168,1.13688 c 0.08682,0.0496 0.206706,0.0827 0.334865,0.0827 0.285253,0 0.450617,-0.14882 0.450617,-0.35967 0,-0.17776 -0.107487,-0.28112 -0.314193,-0.35966 -0.157096,-0.0579 -0.227375,-0.10336 -0.227375,-0.20258 0,-0.0868 0.07028,-0.16122 0.198438,-0.16122 0.11162,0 0.198437,0.0372 0.243911,0.0703 l 0.05374,-0.16123 c -0.06615,-0.0372 -0.1695,-0.0744 -0.293523,-0.0744 -0.256315,0 -0.409276,0.16123 -0.409276,0.3514 0,0.14469 0.09922,0.26458 0.314192,0.339 0.16123,0.0579 0.223243,0.11575 0.223243,0.21911 0,0.0992 -0.07441,0.17776 -0.231511,0.17776 -0.111622,0 -0.223242,-0.0455 -0.289388,-0.0868 z m 1.114145,-1.42213 v 0.28525 h -0.186037 v 0.16536 h 0.186037 v 0.65319 c 0,0.14056 0.02066,0.24392 0.08268,0.31006 0.04961,0.0579 0.132292,0.0909 0.235643,0.0909 0.08268,0 0.148828,-0.0124 0.19017,-0.0289 l -0.0083,-0.16536 c -0.02894,0.008 -0.07028,0.0165 -0.128157,0.0165 -0.11989,0 -0.161231,-0.0827 -0.161231,-0.23152 v -0.64492 h 0.31006 v -0.16536 h -0.31006 v -0.34313 z m 1.727025,0.9219 c 0,-0.0207 0.0083,-0.0579 0.0083,-0.0992 0,-0.22324 -0.103355,-0.56637 -0.496094,-0.56637 -0.347266,0 -0.558107,0.28525 -0.558107,0.64492 0,0.35967 0.219107,0.60358 0.587044,0.60358 0.19017,0 0.318329,-0.0413 0.396875,-0.0744 l -0.03721,-0.1571 c -0.08268,0.0372 -0.17363,0.062 -0.330729,0.062 -0.219107,0 -0.405141,-0.11988 -0.409276,-0.41341 z m -0.839224,-0.15709 c 0.02066,-0.14883 0.115756,-0.3514 0.334862,-0.3514 0.243914,0 0.301792,0.21497 0.301792,0.3514 z m 1.117243,0.7152 h 0.210841 v -0.71934 c 0,-0.0372 0.0041,-0.0744 0.01654,-0.10748 0.03307,-0.10749 0.132291,-0.21911 0.268718,-0.21911 0.165365,0 0.248047,0.14056 0.248047,0.33073 v 0.7152 h 0.214974 v -0.74001 c 0,-0.0372 0.0083,-0.0786 0.01654,-0.10749 0.03721,-0.10335 0.132291,-0.19843 0.256315,-0.19843 0.173633,0 0.26045,0.14056 0.26045,0.36793 v 0.678 h 0.210839 v -0.7028 c 0,-0.41341 -0.235646,-0.5209 -0.39274,-0.5209 -0.111622,0 -0.190172,0.0331 -0.264583,0.0868 -0.04961,0.0372 -0.09509,0.0868 -0.132292,0.15296 h -0.0041 c -0.05375,-0.14056 -0.177768,-0.23978 -0.338998,-0.23978 -0.198437,0 -0.310059,0.10749 -0.376205,0.22324 h -0.0041 l -0.01241,-0.1943 h -0.190169 c 0.0083,0.0992 0.01241,0.19844 0.01241,0.32246 z m 0,0"
       style="fill:#231f20;fill-opacity:1;fill-rule:nonzero;stroke:none;stroke-width:0.352777"
       aria-label="System " />
    <path
       id="path162"
       d="m 83.177996,155.20968 -0.07441,0.0703 0.0083,0.0289 h 0.206706 c -0.04548,0.23978 -0.07441,0.44648 -0.136427,0.78962 -0.07855,0.47955 -0.14056,0.58291 -0.169498,0.62011 -0.02479,0.0289 -0.06615,0.0496 -0.107487,0.0496 -0.04548,0 -0.115755,-0.0248 -0.157096,-0.062 -0.01241,-0.0165 -0.02479,-0.0165 -0.04548,0 -0.03721,0.0289 -0.06614,0.0703 -0.06614,0.10336 -0.0041,0.0537 0.08268,0.10335 0.152963,0.10335 0.06615,0 0.169498,-0.0372 0.276984,-0.15296 0.136428,-0.14056 0.227378,-0.3266 0.314193,-0.75241 0.05374,-0.27285 0.08268,-0.42168 0.128159,-0.69453 l 0.243912,-0.0248 0.05374,-0.0785 h -0.281119 c 0.07441,-0.45475 0.148828,-0.56638 0.239778,-0.56638 0.05374,0 0.103352,0.0289 0.157097,0.0827 0.01654,0.0207 0.04134,0.0207 0.06201,0.004 0.02479,-0.0207 0.06201,-0.062 0.06201,-0.0992 0,-0.0455 -0.06201,-0.10748 -0.148828,-0.10748 -0.09922,0 -0.239779,0.0703 -0.351401,0.19843 -0.11162,0.12403 -0.173633,0.30179 -0.210839,0.48783 z m 0,0"
       style="fill:#231f20;fill-opacity:1;fill-rule:nonzero;stroke:none;stroke-width:0.352777"
       aria-label="f" />
    <path
       id="path163"
       d="m 84.317977,154.5689 c -0.152961,0.2067 -0.318325,0.52089 -0.322461,1.00872 0,0.47956 0.1695,0.79788 0.322461,1.00045 h 0.173633 c -0.177766,-0.24391 -0.314193,-0.56223 -0.314193,-1.00045 0,-0.44649 0.132292,-0.76895 0.314193,-1.00872 z m 0,0"
       style="fill:#231f20;fill-opacity:1;fill-rule:nonzero;stroke:none;stroke-width:0.352777"
       aria-label="(" />
    <path
       id="path164"
       d="m 84.812007,155.48253 c 0.08682,-0.11162 0.136425,-0.14056 0.161229,-0.14056 0.02479,0 0.04548,0.0331 0.07855,0.15297 l 0.08681,0.25631 c -0.152961,0.23151 -0.272852,0.37207 -0.34313,0.37207 -0.02479,0 -0.04548,-0.008 -0.05788,-0.0248 -0.01241,-0.0124 -0.02479,-0.0248 -0.03721,-0.0248 -0.04547,0 -0.09922,0.0579 -0.09922,0.11989 -0.0041,0.0661 0.04961,0.11575 0.111622,0.11575 0.119888,0 0.231511,-0.11989 0.450618,-0.46715 l 0.07855,0.23978 c 0.04547,0.15709 0.09922,0.22737 0.161229,0.22737 0.08682,0 0.198438,-0.0909 0.314193,-0.26458 l -0.04134,-0.0496 c -0.07855,0.0909 -0.14056,0.14056 -0.177766,0.14056 -0.04134,0 -0.07855,-0.0703 -0.128159,-0.22738 l -0.07855,-0.24391 c 0.05374,-0.0785 0.107486,-0.14469 0.161229,-0.20257 0.06201,-0.0827 0.111622,-0.12402 0.148828,-0.12402 0.02066,0 0.04134,0.008 0.05788,0.0289 0.01241,0.0124 0.02066,0.0207 0.03307,0.0207 0.03721,0 0.09509,-0.0496 0.09922,-0.10749 0,-0.0579 -0.04134,-0.10749 -0.103351,-0.10749 -0.111623,0 -0.214974,0.10749 -0.42168,0.40515 l -0.04548,-0.13643 c -0.05788,-0.17776 -0.09095,-0.26872 -0.157096,-0.26872 -0.07855,0 -0.190169,0.10749 -0.293521,0.25632 z m 0.977718,1.07901 c 0.157096,-0.0496 0.338997,-0.1571 0.347265,-0.3514 0.0083,-0.12816 -0.07441,-0.24391 -0.173633,-0.24391 -0.06201,0 -0.11989,0.0496 -0.124023,0.11575 0,0.0207 0.01241,0.0289 0.02066,0.0372 0.07028,0.0207 0.115755,0.0703 0.115755,0.14883 -0.0041,0.0951 -0.09922,0.17363 -0.214974,0.22324 z m 1.774568,-0.56224 c -0.06615,0.0703 -0.157096,0.12816 -0.177768,0.12816 -0.01654,0 -0.02479,-0.0207 -0.0083,-0.0951 0.06201,-0.32246 0.124023,-0.59945 0.194304,-0.85989 h -0.02894 l -0.169497,0.062 c -0.03307,0.15296 -0.06201,0.28525 -0.09095,0.39687 -0.09509,0.1819 -0.37207,0.51263 -0.508497,0.51263 -0.03721,0 -0.05788,-0.0455 -0.02894,-0.16536 0.04547,-0.19844 0.09095,-0.39688 0.132291,-0.59118 0.04134,-0.16536 0.03307,-0.21497 -0.02479,-0.21497 -0.06615,0 -0.219107,0.0868 -0.363802,0.23151 l 0.02894,0.0579 c 0.08268,-0.0661 0.152961,-0.11575 0.169497,-0.11575 0.02066,0 0.02479,0.0207 0.0083,0.0827 -0.04548,0.18603 -0.08682,0.3762 -0.132292,0.56637 -0.06615,0.26872 0.01654,0.3142 0.08268,0.3142 0.05788,0 0.128156,-0.0248 0.198437,-0.0744 0.132292,-0.0909 0.276985,-0.24391 0.396875,-0.40514 h 0.0041 c -0.01654,0.0827 -0.02479,0.13229 -0.04547,0.21911 -0.04961,0.21497 -0.01654,0.26045 0.03721,0.26045 0.07441,0 0.239778,-0.10749 0.355533,-0.25218 z m 0,0"
       style="fill:#231f20;fill-opacity:1;fill-rule:nonzero;stroke:none;stroke-width:0.352777"
       aria-label="x,u" />
    <path
       id="path165"
       d="m 87.884685,156.57807 c 0.157096,-0.21084 0.322461,-0.52089 0.322461,-1.00459 0,-0.48782 -0.165365,-0.80201 -0.322461,-1.00458 h -0.169497 c 0.177765,0.24391 0.310057,0.5581 0.310057,1.00045 0,0.44649 -0.136425,0.76481 -0.310057,1.00872 z m 0,0"
       style="fill:#231f20;fill-opacity:1;fill-rule:nonzero;stroke:none;stroke-width:0.352777"
       aria-label=")" />
    <path
       id="path166"
       d="m 138.0377,134.10916 c -0.0661,0.0703 -0.1571,0.12816 -0.17777,0.12816 -0.0165,0 -0.0248,-0.0207 -0.008,-0.0951 0.062,-0.32246 0.12402,-0.59944 0.1943,-0.85989 h -0.0289 l -0.1695,0.062 c -0.0331,0.15296 -0.062,0.28525 -0.091,0.39688 -0.0951,0.1819 -0.37207,0.51263 -0.5085,0.51263 -0.0372,0 -0.0579,-0.0455 -0.0289,-0.16537 0.0455,-0.19844 0.091,-0.39687 0.1323,-0.59118 0.0413,-0.16536 0.0331,-0.21497 -0.0248,-0.21497 -0.0661,0 -0.2191,0.0868 -0.3638,0.23151 l 0.0289,0.0579 c 0.0827,-0.0661 0.15296,-0.11576 0.1695,-0.11576 0.0207,0 0.0248,0.0207 0.008,0.0827 -0.0455,0.18604 -0.0868,0.37621 -0.1323,0.56638 -0.0661,0.26871 0.0165,0.31419 0.0827,0.31419 0.0579,0 0.12815,-0.0248 0.19843,-0.0744 0.13229,-0.0909 0.27699,-0.24392 0.39688,-0.40515 h 0.004 c -0.0165,0.0827 -0.0248,0.1323 -0.0455,0.21911 -0.0496,0.21497 -0.0165,0.26045 0.0372,0.26045 0.0744,0 0.23978,-0.10749 0.35553,-0.25218 z m 0,0"
       style="fill:#231f20;fill-opacity:1;fill-rule:nonzero;stroke:none;stroke-width:0.352777"
       aria-label="u" />
    <path
       id="path167"
       d="m 138.28368,134.89258 0.24804,0.0207 c 0.0661,0.004 0.11576,0.004 0.16123,0.004 0.10749,0 0.20671,-0.0372 0.29766,-0.11162 0.0537,-0.0455 0.0786,-0.0785 0.0786,-0.0951 0,-0.004 -0.004,-0.0165 -0.0124,-0.0248 -0.0786,0.0827 -0.18603,0.11989 -0.32659,0.11989 -0.0289,0 -0.0579,0 -0.0827,0 l -0.0951,-0.008 -0.0744,-0.004 -0.17776,-0.0124 c 0.0868,-0.0496 0.14469,-0.11162 0.17776,-0.18604 0.0289,-0.0744 0.0455,-0.19017 0.0455,-0.3514 v -0.11575 c 0,-0.20671 0.062,-0.30593 0.19017,-0.30593 0.0496,0 0.0992,0.0165 0.15296,0.0496 l 0.12402,-0.12402 c -0.0496,-0.0207 -0.0951,-0.0331 -0.14056,-0.0331 -0.10748,0 -0.2067,0.0413 -0.30179,0.11989 -0.11575,0.0951 -0.17363,0.22737 -0.17363,0.39687 l -0.004,0.12816 c 0,0.12402 -0.0124,0.21911 -0.0372,0.28112 -0.0289,0.0579 -0.0744,0.10335 -0.13643,0.12816 -0.0331,-0.004 -0.0661,-0.008 -0.11162,-0.0165 l -0.14056,0.11162 c 0.0951,0.008 0.20671,0.0207 0.339,0.0289 z m 0,0"
       style="fill:#231f20;fill-opacity:1;fill-rule:nonzero;stroke:none;stroke-width:0.352777"
       aria-label="L" />
    <path
       id="path168"
       d="m 70.586518,133.5924 c 0.08682,-0.11162 0.136424,-0.14056 0.161229,-0.14056 0.02479,0 0.04548,0.0331 0.07855,0.15296 l 0.08682,0.25631 c -0.152961,0.23151 -0.272852,0.37207 -0.343131,0.37207 -0.02479,0 -0.04548,-0.008 -0.05788,-0.0248 -0.01241,-0.0124 -0.02479,-0.0248 -0.03721,-0.0248 -0.04547,0 -0.09922,0.0579 -0.09922,0.11989 -0.0041,0.0661 0.04961,0.11575 0.111622,0.11575 0.119888,0 0.23151,-0.11988 0.450617,-0.46715 l 0.07855,0.23978 c 0.04547,0.1571 0.09922,0.22737 0.161229,0.22737 0.08682,0 0.198437,-0.0909 0.314193,-0.26458 l -0.04134,-0.0496 c -0.07855,0.0909 -0.140559,0.14056 -0.177765,0.14056 -0.04134,0 -0.07855,-0.0703 -0.128159,-0.22737 l -0.07855,-0.24392 c 0.05374,-0.0785 0.107487,-0.14469 0.161229,-0.20257 0.06201,-0.0827 0.111623,-0.12402 0.148828,-0.12402 0.02066,0 0.04134,0.008 0.05788,0.0289 0.01241,0.0124 0.02066,0.0207 0.03307,0.0207 0.03721,0 0.09509,-0.0496 0.09922,-0.10749 0,-0.0579 -0.04134,-0.10748 -0.103352,-0.10748 -0.111622,0 -0.214974,0.10748 -0.42168,0.40514 l -0.04548,-0.13643 c -0.05788,-0.17776 -0.09095,-0.26871 -0.157097,-0.26871 -0.07855,0 -0.190169,0.10748 -0.29352,0.25631 z m 0,0"
       style="fill:#231f20;fill-opacity:1;fill-rule:nonzero;stroke:none;stroke-width:0.352777"
       aria-label="x" />
    <path
       id="path169"
       d="m 99.533585,154.22576 c -0.06615,0.0703 -0.157096,0.12816 -0.177765,0.12816 -0.01654,0 -0.02479,-0.0207 -0.0083,-0.0951 0.06201,-0.32247 0.124023,-0.59945 0.194302,-0.8599 h -0.02894 l -0.1695,0.062 c -0.03307,0.15296 -0.06201,0.28526 -0.09095,0.39687 -0.09508,0.18191 -0.372071,0.51264 -0.508495,0.51264 -0.03721,0 -0.05788,-0.0455 -0.02894,-0.16537 0.04548,-0.19844 0.09095,-0.39687 0.132291,-0.59118 0.04134,-0.16536 0.03307,-0.21497 -0.02479,-0.21497 -0.06615,0 -0.21911,0.0868 -0.363802,0.23151 l 0.02894,0.0579 c 0.08268,-0.0662 0.152964,-0.11576 0.1695,-0.11576 0.02066,0 0.02479,0.0207 0.0083,0.0827 -0.04548,0.18604 -0.08682,0.37621 -0.132291,0.56638 -0.06615,0.26872 0.01654,0.31419 0.08268,0.31419 0.05788,0 0.128156,-0.0248 0.198437,-0.0744 0.132292,-0.0909 0.276985,-0.24392 0.396875,-0.40515 h 0.0041 c -0.01654,0.0827 -0.02479,0.13229 -0.04547,0.21911 -0.04961,0.21498 -0.01654,0.26045 0.03721,0.26045 0.07441,0 0.239778,-0.10749 0.355534,-0.25218 z m 0,0"
       style="fill:#231f20;fill-opacity:1;fill-rule:nonzero;stroke:none;stroke-width:0.352777"
       aria-label="u" />
    <path
       id="path170"
       d="m 94.895111,166.48651 c 0.09095,0.062 0.264584,0.10749 0.425813,0.10749 0.392742,0 0.582911,-0.22324 0.582911,-0.47956 0,-0.24391 -0.144695,-0.38033 -0.425815,-0.48782 -0.23151,-0.0909 -0.330729,-0.16537 -0.330729,-0.32246 0,-0.11162 0.08682,-0.24805 0.314193,-0.24805 0.148828,0 0.26045,0.0496 0.314192,0.0786 l 0.06201,-0.17364 c -0.07441,-0.0413 -0.198437,-0.0827 -0.367937,-0.0827 -0.326594,0 -0.541568,0.19431 -0.541568,0.45062 0,0.23565 0.169498,0.37621 0.442349,0.47129 0.223242,0.0868 0.314193,0.17777 0.314193,0.33073 0,0.1695 -0.132292,0.28525 -0.351399,0.28525 -0.144695,0 -0.289388,-0.0496 -0.384474,-0.10748 z m 2.151806,0.0827 c -0.01241,-0.0827 -0.01654,-0.1819 -0.01654,-0.28526 v -0.44648 c 0,-0.23978 -0.09095,-0.49196 -0.454753,-0.49196 -0.152963,0 -0.293523,0.0455 -0.392742,0.10749 l 0.04961,0.14469 c 0.08268,-0.0537 0.198438,-0.0909 0.31006,-0.0909 0.243912,0 0.272852,0.17777 0.272852,0.27698 v 0.0248 c -0.463021,0 -0.719336,0.15709 -0.719336,0.44648 0,0.1695 0.124023,0.34313 0.363802,0.34313 0.169497,0 0.297656,-0.0868 0.367935,-0.17776 h 0.0041 l 0.02066,0.14882 z M 96.81954,166.1682 c 0,0.0207 -0.0041,0.0455 -0.01241,0.0661 -0.03721,0.10336 -0.132292,0.20257 -0.289388,0.20257 -0.111623,0 -0.206706,-0.0661 -0.206706,-0.2067 0,-0.23565 0.272851,-0.27699 0.508495,-0.26872 z m 0.79685,0.40101 v -1.0294 h 0.289388 v -0.16536 H 97.61639 v -0.062 c 0,-0.18604 0.04548,-0.34727 0.231511,-0.34727 0.06201,0 0.107487,0.0124 0.136427,0.0289 l 0.03307,-0.1695 c -0.04548,-0.0165 -0.111623,-0.0331 -0.186037,-0.0331 -0.103351,0 -0.210838,0.0289 -0.29352,0.10748 -0.09922,0.0992 -0.136427,0.25218 -0.136427,0.41755 v 0.0579 h -0.169498 v 0.16536 h 0.169498 v 1.0294 z m 1.444874,-0.55811 c 0,-0.0207 0.0083,-0.0579 0.0083,-0.0992 0,-0.22324 -0.103351,-0.56637 -0.496094,-0.56637 -0.347265,0 -0.558104,0.28525 -0.558104,0.64492 0,0.35967 0.219107,0.60358 0.587045,0.60358 0.190169,0 0.318325,-0.0413 0.396875,-0.0744 l -0.03721,-0.1571 c -0.08268,0.0372 -0.173633,0.062 -0.330729,0.062 -0.219107,0 -0.405143,-0.11989 -0.409276,-0.41341 z M 98.22204,165.854 c 0.02066,-0.14882 0.115755,-0.35139 0.334862,-0.35139 0.243914,0 0.301792,0.21497 0.301792,0.35139 z m 1.554427,0.65733 c 0.08682,0.0496 0.206706,0.0827 0.334863,0.0827 0.28525,0 0.45062,-0.14883 0.45062,-0.35967 0,-0.17776 -0.10749,-0.28112 -0.31419,-0.35966 -0.1571,-0.0579 -0.22738,-0.10336 -0.22738,-0.20258 0,-0.0868 0.0703,-0.16123 0.19844,-0.16123 0.11162,0 0.19843,0.0372 0.24391,0.0703 l 0.0537,-0.16123 c -0.0661,-0.0372 -0.16949,-0.0744 -0.29352,-0.0744 -0.256313,0 -0.409277,0.16123 -0.409277,0.3514 0,0.14469 0.09922,0.26458 0.314197,0.33899 0.16123,0.0579 0.22324,0.11576 0.22324,0.21911 0,0.0992 -0.0744,0.17777 -0.23151,0.17777 -0.11162,0 -0.223245,-0.0455 -0.289391,-0.0868 z m 0.903303,-1.13688 0.44235,1.09967 c 0.0124,0.0289 0.0165,0.0455 0.0165,0.0579 0,0.0124 -0.008,0.0289 -0.0165,0.0537 -0.0496,0.10749 -0.12402,0.19431 -0.18603,0.23978 -0.062,0.0537 -0.1323,0.0909 -0.19017,0.10749 l 0.0579,0.1819 c 0.0537,-0.008 0.1571,-0.0455 0.26459,-0.14056 0.14883,-0.12816 0.25631,-0.339 0.40927,-0.74828 l 0.3266,-0.85162 h -0.23151 l -0.23565,0.7028 c -0.0289,0.0827 -0.0537,0.17776 -0.0744,0.24804 h -0.008 c -0.0165,-0.0703 -0.0455,-0.16536 -0.0744,-0.24391 l -0.26045,-0.70693 z m 1.23713,1.13688 c 0.0868,0.0496 0.20671,0.0827 0.33487,0.0827 0.28525,0 0.45062,-0.14883 0.45062,-0.35967 0,-0.17776 -0.10749,-0.28112 -0.3142,-0.35966 -0.15709,-0.0579 -0.22737,-0.10336 -0.22737,-0.20258 0,-0.0868 0.0703,-0.16123 0.19843,-0.16123 0.11163,0 0.19844,0.0372 0.24392,0.0703 l 0.0537,-0.16123 c -0.0661,-0.0372 -0.1695,-0.0744 -0.29352,-0.0744 -0.25632,0 -0.40928,0.16123 -0.40928,0.3514 0,0.14469 0.0992,0.26458 0.31419,0.33899 0.16123,0.0579 0.22324,0.11576 0.22324,0.21911 0,0.0992 -0.0744,0.17777 -0.23151,0.17777 -0.11162,0 -0.22324,-0.0455 -0.28938,-0.0868 z m 1.11415,-1.42214 v 0.28526 h -0.18604 v 0.16536 h 0.18604 v 0.65319 c 0,0.14056 0.0207,0.24391 0.0827,0.31006 0.0496,0.0579 0.13229,0.0909 0.23564,0.0909 0.0827,0 0.14883,-0.0124 0.19017,-0.0289 l -0.008,-0.16536 c -0.0289,0.008 -0.0703,0.0165 -0.12816,0.0165 -0.11989,0 -0.16123,-0.0827 -0.16123,-0.23151 v -0.64492 h 0.31006 v -0.16536 h -0.31006 v -0.34313 z m 1.72702,0.92191 c 0,-0.0207 0.008,-0.0579 0.008,-0.0992 0,-0.22324 -0.10335,-0.56637 -0.49609,-0.56637 -0.34727,0 -0.55811,0.28525 -0.55811,0.64492 0,0.35967 0.21911,0.60358 0.58705,0.60358 0.19016,0 0.31832,-0.0413 0.39687,-0.0744 l -0.0372,-0.1571 c -0.0827,0.0372 -0.17363,0.062 -0.33073,0.062 -0.2191,0 -0.40514,-0.11989 -0.40927,-0.41341 z m -0.83922,-0.1571 c 0.0207,-0.14882 0.11576,-0.35139 0.33486,-0.35139 0.24392,0 0.30179,0.21497 0.30179,0.35139 z m 1.11724,0.71521 h 0.21084 v -0.71934 c 0,-0.0372 0.004,-0.0744 0.0165,-0.10749 0.0331,-0.10748 0.13229,-0.21911 0.26872,-0.21911 0.16536,0 0.24804,0.14056 0.24804,0.33073 v 0.71521 h 0.21498 v -0.74001 c 0,-0.0372 0.008,-0.0786 0.0165,-0.10749 0.0372,-0.10335 0.1323,-0.19844 0.25632,-0.19844 0.17363,0 0.26045,0.14056 0.26045,0.36794 v 0.678 h 0.21084 v -0.7028 c 0,-0.41341 -0.23565,-0.5209 -0.39274,-0.5209 -0.11162,0 -0.19017,0.0331 -0.26459,0.0868 -0.0496,0.0372 -0.0951,0.0868 -0.13229,0.15297 h -0.004 c -0.0537,-0.14056 -0.17776,-0.23978 -0.33899,-0.23978 -0.19844,0 -0.31006,0.10749 -0.37621,0.22324 h -0.004 l -0.0124,-0.1943 h -0.19017 c 0.008,0.0992 0.0124,0.19843 0.0124,0.32246 z m 0,0"
       style="fill:#231f20;fill-opacity:1;fill-rule:nonzero;stroke:none;stroke-width:0.352777"
       aria-label="Safe system " />
    <path
       id="path171"
       d="m 107.63128,165.49846 -0.0744,0.0703 0.008,0.0289 h 0.20671 c -0.0455,0.23978 -0.0744,0.44648 -0.13643,0.78962 -0.0786,0.47955 -0.14056,0.5829 -0.1695,0.62011 -0.0248,0.0289 -0.0661,0.0496 -0.10748,0.0496 -0.0455,0 -0.11576,-0.0248 -0.1571,-0.062 -0.0124,-0.0165 -0.0248,-0.0165 -0.0455,0 -0.0372,0.0289 -0.0662,0.0703 -0.0662,0.10335 -0.004,0.0537 0.0827,0.10335 0.15296,0.10335 0.0661,0 0.1695,-0.0372 0.27699,-0.15296 0.13642,-0.14056 0.22737,-0.32659 0.31419,-0.7524 0.0537,-0.27286 0.0827,-0.42168 0.12816,-0.69454 l 0.24391,-0.0248 0.0537,-0.0786 h -0.28112 c 0.0744,-0.45475 0.14883,-0.56637 0.23978,-0.56637 0.0537,0 0.10336,0.0289 0.1571,0.0827 0.0165,0.0207 0.0413,0.0207 0.062,0.004 0.0248,-0.0207 0.062,-0.062 0.062,-0.0992 0,-0.0455 -0.062,-0.10749 -0.14883,-0.10749 -0.0992,0 -0.23977,0.0703 -0.35139,0.19844 -0.11163,0.12403 -0.17364,0.30179 -0.21084,0.48783 z m 0,0"
       style="fill:#231f20;fill-opacity:1;fill-rule:nonzero;stroke:none;stroke-width:0.352777"
       aria-label="f" />
    <path
       id="path172"
       d="m 108.17285,166.72422 c 0.004,0.12403 0.004,0.21911 0.004,0.25632 0.0372,0.0455 0.16123,0.10749 0.29766,0.10749 0.19843,0 0.3762,-0.12816 0.3762,-0.33073 0,-0.13643 -0.0786,-0.22325 -0.19844,-0.3142 l -0.0537,-0.0372 c -0.0909,-0.0703 -0.16123,-0.1323 -0.16123,-0.23151 0,-0.10749 0.0744,-0.20257 0.1943,-0.20257 0.14883,0 0.1943,0.11575 0.20671,0.24804 l 0.0496,-0.008 c 0.004,-0.0744 0,-0.1695 0.008,-0.23978 -0.0165,-0.004 -0.0455,-0.0165 -0.0785,-0.0289 -0.0455,-0.0165 -0.10748,-0.0289 -0.16123,-0.0289 -0.21084,0 -0.3514,0.12816 -0.3514,0.31006 0,0.14469 0.11163,0.23978 0.19017,0.30179 l 0.0496,0.0372 c 0.0992,0.0785 0.16123,0.14469 0.16123,0.24391 0,0.13643 -0.0827,0.22324 -0.2067,0.22324 -0.19017,0 -0.26045,-0.17776 -0.28112,-0.31006 z m 0,0"
       style="fill:#231f20;fill-opacity:1;fill-rule:nonzero;stroke:none;stroke-width:0.352777"
       aria-label="S" />
    <path
       id="path173"
       d="m 109.52471,164.85767 c -0.15296,0.20671 -0.31833,0.5209 -0.32246,1.00873 0,0.47955 0.1695,0.79788 0.32246,1.00045 h 0.17363 c -0.17777,-0.24391 -0.31419,-0.56224 -0.31419,-1.00045 0,-0.44649 0.13229,-0.76895 0.31419,-1.00873 z m 0,0"
       style="fill:#231f20;fill-opacity:1;fill-rule:nonzero;stroke:none;stroke-width:0.352777"
       aria-label="(" />
    <path
       id="path174"
       d="m 109.95672,165.77131 c 0.0868,-0.11162 0.13643,-0.14056 0.16123,-0.14056 0.0248,0 0.0455,0.0331 0.0786,0.15296 l 0.0868,0.25632 c -0.15296,0.23151 -0.27285,0.37207 -0.34313,0.37207 -0.0248,0 -0.0455,-0.008 -0.0579,-0.0248 -0.0124,-0.0124 -0.0248,-0.0248 -0.0372,-0.0248 -0.0455,0 -0.0992,0.0579 -0.0992,0.11989 -0.004,0.0661 0.0496,0.11575 0.11162,0.11575 0.11989,0 0.23152,-0.11989 0.45062,-0.46715 l 0.0785,0.23978 c 0.0455,0.15709 0.0992,0.22737 0.16123,0.22737 0.0868,0 0.19844,-0.091 0.31419,-0.26458 l -0.0413,-0.0496 c -0.0785,0.0909 -0.14056,0.14056 -0.17776,0.14056 -0.0413,0 -0.0785,-0.0703 -0.12816,-0.22738 l -0.0786,-0.24391 c 0.0537,-0.0786 0.10749,-0.14469 0.16123,-0.20257 0.062,-0.0827 0.11162,-0.12403 0.14883,-0.12403 0.0207,0 0.0413,0.008 0.0579,0.0289 0.0124,0.0124 0.0207,0.0207 0.0331,0.0207 0.0372,0 0.0951,-0.0496 0.0992,-0.10749 0,-0.0579 -0.0413,-0.10749 -0.10335,-0.10749 -0.11163,0 -0.21498,0.10749 -0.42168,0.40515 l -0.0455,-0.13643 c -0.0579,-0.17777 -0.091,-0.26872 -0.1571,-0.26872 -0.0785,0 -0.19017,0.10749 -0.29352,0.25632 z m 0.97875,1.07901 c 0.1571,-0.0496 0.339,-0.1571 0.34727,-0.3514 0.008,-0.12816 -0.0744,-0.24392 -0.17363,-0.24392 -0.062,0 -0.11989,0.0496 -0.12403,0.11576 0,0.0207 0.0124,0.0289 0.0207,0.0372 0.0703,0.0207 0.11575,0.0703 0.11575,0.14883 -0.004,0.0951 -0.0992,0.17364 -0.21497,0.22325 z m 1.77457,-0.56224 c -0.0661,0.0703 -0.15709,0.12815 -0.17776,0.12815 -0.0165,0 -0.0248,-0.0207 -0.008,-0.0951 0.062,-0.32246 0.12402,-0.59945 0.19431,-0.8599 h -0.0289 l -0.1695,0.062 c -0.0331,0.15297 -0.062,0.28526 -0.091,0.39688 -0.0951,0.1819 -0.37207,0.51263 -0.5085,0.51263 -0.0372,0 -0.0579,-0.0455 -0.0289,-0.16537 0.0455,-0.19843 0.091,-0.39687 0.13229,-0.59117 0.0413,-0.16537 0.0331,-0.21498 -0.0248,-0.21498 -0.0661,0 -0.21911,0.0868 -0.3638,0.23151 l 0.0289,0.0579 c 0.0827,-0.0661 0.15296,-0.11575 0.1695,-0.11575 0.0207,0 0.0248,0.0207 0.008,0.0827 -0.0455,0.18603 -0.0868,0.3762 -0.13229,0.56637 -0.0661,0.26872 0.0165,0.31419 0.0827,0.31419 0.0579,0 0.12816,-0.0248 0.19844,-0.0744 0.13229,-0.0909 0.27699,-0.24391 0.39688,-0.40514 h 0.004 c -0.0165,0.0827 -0.0248,0.13229 -0.0455,0.21911 -0.0496,0.21497 -0.0165,0.26044 0.0372,0.26044 0.0744,0 0.23977,-0.10748 0.35553,-0.25218 z m 0,0"
       style="fill:#231f20;fill-opacity:1;fill-rule:nonzero;stroke:none;stroke-width:0.352777"
       aria-label="x,u" />
    <path
       id="path175"
       d="m 112.95602,167.07149 0.24805,0.0207 c 0.0661,0.004 0.11576,0.004 0.16123,0.004 0.10749,0 0.20671,-0.0372 0.29766,-0.11162 0.0537,-0.0455 0.0786,-0.0785 0.0786,-0.0951 0,-0.004 -0.004,-0.0165 -0.0124,-0.0248 -0.0786,0.0827 -0.18604,0.11989 -0.3266,0.11989 -0.0289,0 -0.0579,0 -0.0827,0 l -0.0951,-0.008 -0.0744,-0.004 -0.17776,-0.0124 c 0.0868,-0.0496 0.14469,-0.11162 0.17776,-0.18603 0.0289,-0.0744 0.0455,-0.19017 0.0455,-0.3514 v -0.11576 c 0,-0.20671 0.062,-0.30592 0.19017,-0.30592 0.0496,0 0.0992,0.0165 0.15296,0.0496 l 0.12402,-0.12403 c -0.0496,-0.0207 -0.0951,-0.0331 -0.14056,-0.0331 -0.10749,0 -0.2067,0.0413 -0.30179,0.11989 -0.11575,0.0951 -0.17363,0.22737 -0.17363,0.39687 l -0.004,0.12816 c 0,0.12402 -0.0124,0.21911 -0.0372,0.28112 -0.0289,0.0579 -0.0744,0.10335 -0.13643,0.12816 -0.0331,-0.004 -0.0661,-0.008 -0.11162,-0.0165 l -0.14056,0.11162 c 0.0951,0.008 0.20671,0.0207 0.339,0.0289 z m 0,0"
       style="fill:#231f20;fill-opacity:1;fill-rule:nonzero;stroke:none;stroke-width:0.352777"
       aria-label="L" />
    <path
       id="path176"
       d="m 114.0805,166.86685 c 0.1571,-0.21084 0.32246,-0.5209 0.32246,-1.00459 0,-0.48782 -0.16536,-0.80202 -0.32246,-1.00459 h -0.1695 c 0.17777,0.24391 0.31006,0.55811 0.31006,1.00046 0,0.44648 -0.13642,0.76481 -0.31006,1.00872 z m 0,0"
       style="fill:#231f20;fill-opacity:1;fill-rule:nonzero;stroke:none;stroke-width:0.352777"
       aria-label=")" />
  </g>
</svg>
